<?xml version="1.0" encoding="UTF-8" standalone="no"?>
<!DOCTYPE svg PUBLIC "-//W3C//DTD SVG 1.1//EN"
 "http://www.w3.org/Graphics/SVG/1.1/DTD/svg11.dtd">
<!-- Generated by graphviz version 2.46.1 (20210213.1702)
 -->
<!-- Pages: 1 -->
<svg width="254pt" height="404pt"
 viewBox="0.00 0.00 253.98 404.00" xmlns="http://www.w3.org/2000/svg" xmlns:xlink="http://www.w3.org/1999/xlink">
<g id="graph0" class="graph" transform="scale(1 1) rotate(0) translate(4 400)">
<polygon fill="white" stroke="transparent" points="-4,4 -4,-400 249.98,-400 249.98,4 -4,4"/>
<!-- inputnode (utility) -->
<g id="node1" class="node">
<title>inputnode (utility)</title>
<ellipse fill="none" stroke="black" cx="95.79" cy="-378" rx="75.29" ry="18"/>
<text text-anchor="middle" x="95.79" y="-374.3" font-family="Times,serif" font-size="14.00">inputnode (utility)</text>
</g>
<!-- sstrip_orig_vol (afni) -->
<g id="node2" class="node">
<title>sstrip_orig_vol (afni)</title>
<ellipse fill="none" stroke="black" cx="85.79" cy="-162" rx="85.59" ry="18"/>
<text text-anchor="middle" x="85.79" y="-158.3" font-family="Times,serif" font-size="14.00">sstrip_orig_vol (afni)</text>
</g>
<!-- inputnode (utility)&#45;&gt;sstrip_orig_vol (afni) -->
<g id="edge1" class="edge">
<title>inputnode (utility)&#45;&gt;sstrip_orig_vol (afni)</title>
<path fill="none" stroke="black" d="M87.05,-359.79C82.3,-349.64 76.8,-336.39 73.79,-324 62.44,-277.28 59.96,-263.43 67.79,-216 69.23,-207.28 71.92,-198.06 74.79,-189.8"/>
<polygon fill="black" stroke="black" points="78.12,-190.89 78.31,-180.3 71.56,-188.46 78.12,-190.89"/>
</g>
<!-- inu_n4 (fixes) -->
<g id="node3" class="node">
<title>inu_n4 (fixes)</title>
<ellipse fill="none" stroke="black" cx="142.79" cy="-306" rx="59.59" ry="18"/>
<text text-anchor="middle" x="142.79" y="-302.3" font-family="Times,serif" font-size="14.00">inu_n4 (fixes)</text>
</g>
<!-- inputnode (utility)&#45;&gt;inu_n4 (fixes) -->
<g id="edge2" class="edge">
<title>inputnode (utility)&#45;&gt;inu_n4 (fixes)</title>
<path fill="none" stroke="black" d="M107.17,-360.05C112.77,-351.71 119.63,-341.49 125.84,-332.25"/>
<polygon fill="black" stroke="black" points="128.85,-334.04 131.52,-323.79 123.04,-330.14 128.85,-334.04"/>
</g>
<!-- outputnode (utility) -->
<g id="node4" class="node">
<title>outputnode (utility)</title>
<ellipse fill="none" stroke="black" cx="135.79" cy="-18" rx="79.09" ry="18"/>
<text text-anchor="middle" x="135.79" y="-14.3" font-family="Times,serif" font-size="14.00">outputnode (utility)</text>
</g>
<!-- sstrip_orig_vol (afni)&#45;&gt;outputnode (utility) -->
<g id="edge3" class="edge">
<title>sstrip_orig_vol (afni)&#45;&gt;outputnode (utility)</title>
<path fill="none" stroke="black" d="M71.38,-143.94C57.67,-125.53 40.92,-95.65 53.79,-72 61.44,-57.96 74.58,-47.06 88.14,-38.91"/>
<polygon fill="black" stroke="black" points="90.02,-41.87 97.05,-33.94 86.61,-35.75 90.02,-41.87"/>
</g>
<!-- binarize (nibabel) -->
<g id="node5" class="node">
<title>binarize (nibabel)</title>
<ellipse fill="none" stroke="black" cx="135.79" cy="-90" rx="73.39" ry="18"/>
<text text-anchor="middle" x="135.79" y="-86.3" font-family="Times,serif" font-size="14.00">binarize (nibabel)</text>
</g>
<!-- sstrip_orig_vol (afni)&#45;&gt;binarize (nibabel) -->
<g id="edge4" class="edge">
<title>sstrip_orig_vol (afni)&#45;&gt;binarize (nibabel)</title>
<path fill="none" stroke="black" d="M97.9,-144.05C103.91,-135.63 111.31,-125.28 117.96,-115.97"/>
<polygon fill="black" stroke="black" points="120.84,-117.96 123.8,-107.79 115.14,-113.89 120.84,-117.96"/>
</g>
<!-- inu_n4 (fixes)&#45;&gt;outputnode (utility) -->
<g id="edge6" class="edge">
<title>inu_n4 (fixes)&#45;&gt;outputnode (utility)</title>
<path fill="none" stroke="black" d="M175.58,-290.84C191.4,-282.12 208.85,-269.27 217.79,-252 254.58,-180.96 256.04,-142.26 217.79,-72 210.15,-57.96 197,-47.06 183.45,-38.91"/>
<polygon fill="black" stroke="black" points="184.97,-35.75 174.54,-33.94 181.56,-41.87 184.97,-35.75"/>
</g>
<!-- skullstrip (afni) -->
<g id="node6" class="node">
<title>skullstrip (afni)</title>
<ellipse fill="none" stroke="black" cx="142.79" cy="-234" rx="65.79" ry="18"/>
<text text-anchor="middle" x="142.79" y="-230.3" font-family="Times,serif" font-size="14.00">skullstrip (afni)</text>
</g>
<!-- inu_n4 (fixes)&#45;&gt;skullstrip (afni) -->
<g id="edge5" class="edge">
<title>inu_n4 (fixes)&#45;&gt;skullstrip (afni)</title>
<path fill="none" stroke="black" d="M142.79,-287.7C142.79,-279.98 142.79,-270.71 142.79,-262.11"/>
<polygon fill="black" stroke="black" points="146.29,-262.1 142.79,-252.1 139.29,-262.1 146.29,-262.1"/>
</g>
<!-- binarize (nibabel)&#45;&gt;outputnode (utility) -->
<g id="edge7" class="edge">
<title>binarize (nibabel)&#45;&gt;outputnode (utility)</title>
<path fill="none" stroke="black" d="M135.79,-71.7C135.79,-63.98 135.79,-54.71 135.79,-46.11"/>
<polygon fill="black" stroke="black" points="139.29,-46.1 135.79,-36.1 132.29,-46.1 139.29,-46.1"/>
</g>
<!-- skullstrip (afni)&#45;&gt;sstrip_orig_vol (afni) -->
<g id="edge8" class="edge">
<title>skullstrip (afni)&#45;&gt;sstrip_orig_vol (afni)</title>
<path fill="none" stroke="black" d="M128.99,-216.05C122.06,-207.54 113.53,-197.07 105.89,-187.68"/>
<polygon fill="black" stroke="black" points="108.49,-185.33 99.46,-179.79 103.06,-189.75 108.49,-185.33"/>
</g>
</g>
</svg>
