<?xml version="1.0" encoding="UTF-8" standalone="no"?>
<!DOCTYPE svg PUBLIC "-//W3C//DTD SVG 1.1//EN"
 "http://www.w3.org/Graphics/SVG/1.1/DTD/svg11.dtd">
<!-- Generated by graphviz version 2.46.1 (20210213.1702)
 -->
<!-- Pages: 1 -->
<svg width="565pt" height="1268pt"
 viewBox="0.00 0.00 564.81 1268.00" xmlns="http://www.w3.org/2000/svg" xmlns:xlink="http://www.w3.org/1999/xlink">
<g id="graph0" class="graph" transform="scale(1 1) rotate(0) translate(4 1264)">
<polygon fill="white" stroke="transparent" points="-4,4 -4,-1264 560.81,-1264 560.81,4 -4,4"/>
<!-- inputnode (utility) -->
<g id="node1" class="node">
<title>inputnode (utility)</title>
<ellipse fill="none" stroke="black" cx="290.51" cy="-1242" rx="75.29" ry="18"/>
<text text-anchor="middle" x="290.51" y="-1238.3" font-family="Times,serif" font-size="14.00">inputnode (utility)</text>
</g>
<!-- init_aff (ants) -->
<g id="node2" class="node">
<title>init_aff (ants)</title>
<ellipse fill="none" stroke="black" cx="415.51" cy="-1170" rx="59.29" ry="18"/>
<text text-anchor="middle" x="415.51" y="-1166.3" font-family="Times,serif" font-size="14.00">init_aff (ants)</text>
</g>
<!-- inputnode (utility)&#45;&gt;init_aff (ants) -->
<g id="edge1" class="edge">
<title>inputnode (utility)&#45;&gt;init_aff (ants)</title>
<path fill="none" stroke="black" d="M318.57,-1225.29C336.59,-1215.2 360.16,-1202 379.55,-1191.14"/>
<polygon fill="black" stroke="black" points="381.4,-1194.12 388.41,-1186.18 377.98,-1188.01 381.4,-1194.12"/>
</g>
<!-- map_brainmask (fixes) -->
<g id="node3" class="node">
<title>map_brainmask (fixes)</title>
<ellipse fill="none" stroke="black" cx="415.51" cy="-1026" rx="92.88" ry="18"/>
<text text-anchor="middle" x="415.51" y="-1022.3" font-family="Times,serif" font-size="14.00">map_brainmask (fixes)</text>
</g>
<!-- inputnode (utility)&#45;&gt;map_brainmask (fixes) -->
<g id="edge2" class="edge">
<title>inputnode (utility)&#45;&gt;map_brainmask (fixes)</title>
<path fill="none" stroke="black" d="M353.75,-1232.01C403.74,-1223.46 467.66,-1208.79 483.51,-1188 492.72,-1175.93 491.72,-1104.2 479.51,-1080 473.35,-1067.79 462.97,-1057.35 452.35,-1049.05"/>
<polygon fill="black" stroke="black" points="454.38,-1046.2 444.24,-1043.12 450.25,-1051.85 454.38,-1046.2"/>
</g>
<!-- norm (fixes) -->
<g id="node4" class="node">
<title>norm (fixes)</title>
<ellipse fill="none" stroke="black" cx="415.51" cy="-1098" rx="54.69" ry="18"/>
<text text-anchor="middle" x="415.51" y="-1094.3" font-family="Times,serif" font-size="14.00">norm (fixes)</text>
</g>
<!-- inputnode (utility)&#45;&gt;norm (fixes) -->
<g id="edge3" class="edge">
<title>inputnode (utility)&#45;&gt;norm (fixes)</title>
<path fill="none" stroke="black" d="M299.09,-1224.08C309.12,-1205.25 326.99,-1174.51 347.51,-1152 358.17,-1140.32 371.6,-1129.25 383.72,-1120.28"/>
<polygon fill="black" stroke="black" points="385.77,-1123.12 391.84,-1114.43 381.68,-1117.44 385.77,-1123.12"/>
</g>
<!-- check_hdr (header) -->
<g id="node5" class="node">
<title>check_hdr (header)</title>
<ellipse fill="none" stroke="black" cx="383.51" cy="-810" rx="79.09" ry="18"/>
<text text-anchor="middle" x="383.51" y="-806.3" font-family="Times,serif" font-size="14.00">check_hdr (header)</text>
</g>
<!-- inputnode (utility)&#45;&gt;check_hdr (header) -->
<g id="edge4" class="edge">
<title>inputnode (utility)&#45;&gt;check_hdr (header)</title>
<path fill="none" stroke="black" d="M290.51,-1223.95C290.51,-1197.29 290.51,-1144.11 290.51,-1099 290.51,-1099 290.51,-1099 290.51,-953 290.51,-912.03 291.73,-898.05 314.51,-864 322.69,-851.78 334.63,-841.18 346.29,-832.75"/>
<polygon fill="black" stroke="black" points="348.4,-835.54 354.67,-827 344.44,-829.77 348.4,-835.54"/>
</g>
<!-- n4_correct (fixes) -->
<g id="node6" class="node">
<title>n4_correct (fixes)</title>
<ellipse fill="none" stroke="black" cx="383.51" cy="-738" rx="73.39" ry="18"/>
<text text-anchor="middle" x="383.51" y="-734.3" font-family="Times,serif" font-size="14.00">n4_correct (fixes)</text>
</g>
<!-- inputnode (utility)&#45;&gt;n4_correct (fixes) -->
<g id="edge5" class="edge">
<title>inputnode (utility)&#45;&gt;n4_correct (fixes)</title>
<path fill="none" stroke="black" d="M282.82,-1223.91C271.72,-1197.62 252.51,-1145.45 252.51,-1099 252.51,-1099 252.51,-1099 252.51,-881 252.51,-837.07 265.91,-824.46 295.51,-792 307.87,-778.45 324.5,-767.24 339.97,-758.67"/>
<polygon fill="black" stroke="black" points="341.71,-761.7 348.91,-753.93 338.43,-755.52 341.71,-761.7"/>
</g>
<!-- fixhdr_unifize (header) -->
<g id="node7" class="node">
<title>fixhdr_unifize (header)</title>
<ellipse fill="none" stroke="black" cx="140.51" cy="-378" rx="91.78" ry="18"/>
<text text-anchor="middle" x="140.51" y="-374.3" font-family="Times,serif" font-size="14.00">fixhdr_unifize (header)</text>
</g>
<!-- inputnode (utility)&#45;&gt;fixhdr_unifize (header) -->
<g id="edge6" class="edge">
<title>inputnode (utility)&#45;&gt;fixhdr_unifize (header)</title>
<path fill="none" stroke="black" d="M253.78,-1226.19C235.73,-1217.37 214.84,-1204.62 200.51,-1188 172.65,-1155.68 164.51,-1141.67 164.51,-1099 164.51,-1099 164.51,-1099 164.51,-521 164.51,-480.65 154.98,-434.74 147.93,-406.32"/>
<polygon fill="black" stroke="black" points="151.24,-405.15 145.37,-396.33 144.46,-406.88 151.24,-405.15"/>
</g>
<!-- fixhdr_skullstrip2 (header) -->
<g id="node8" class="node">
<title>fixhdr_skullstrip2 (header)</title>
<ellipse fill="none" stroke="black" cx="271.51" cy="-234" rx="104.78" ry="18"/>
<text text-anchor="middle" x="271.51" y="-230.3" font-family="Times,serif" font-size="14.00">fixhdr_skullstrip2 (header)</text>
</g>
<!-- inputnode (utility)&#45;&gt;fixhdr_skullstrip2 (header) -->
<g id="edge7" class="edge">
<title>inputnode (utility)&#45;&gt;fixhdr_skullstrip2 (header)</title>
<path fill="none" stroke="black" d="M274.4,-1224.19C252.09,-1199.09 214.51,-1149.33 214.51,-1099 214.51,-1099 214.51,-1099 214.51,-593 214.51,-559.94 252.91,-339.98 266.68,-262.19"/>
<polygon fill="black" stroke="black" points="270.15,-262.65 268.45,-252.19 263.26,-261.43 270.15,-262.65"/>
</g>
<!-- init_aff (ants)&#45;&gt;norm (fixes) -->
<g id="edge8" class="edge">
<title>init_aff (ants)&#45;&gt;norm (fixes)</title>
<path fill="none" stroke="black" d="M415.51,-1151.7C415.51,-1143.98 415.51,-1134.71 415.51,-1126.11"/>
<polygon fill="black" stroke="black" points="419.01,-1126.1 415.51,-1116.1 412.01,-1126.1 419.01,-1126.1"/>
</g>
<!-- binarize_mask (nibabel) -->
<g id="node9" class="node">
<title>binarize_mask (nibabel)</title>
<ellipse fill="none" stroke="black" cx="415.51" cy="-954" rx="96.68" ry="18"/>
<text text-anchor="middle" x="415.51" y="-950.3" font-family="Times,serif" font-size="14.00">binarize_mask (nibabel)</text>
</g>
<!-- map_brainmask (fixes)&#45;&gt;binarize_mask (nibabel) -->
<g id="edge9" class="edge">
<title>map_brainmask (fixes)&#45;&gt;binarize_mask (nibabel)</title>
<path fill="none" stroke="black" d="M415.51,-1007.7C415.51,-999.98 415.51,-990.71 415.51,-982.11"/>
<polygon fill="black" stroke="black" points="419.01,-982.1 415.51,-972.1 412.01,-982.1 419.01,-982.1"/>
</g>
<!-- norm (fixes)&#45;&gt;map_brainmask (fixes) -->
<g id="edge10" class="edge">
<title>norm (fixes)&#45;&gt;map_brainmask (fixes)</title>
<path fill="none" stroke="black" d="M415.51,-1079.7C415.51,-1071.98 415.51,-1062.71 415.51,-1054.11"/>
<polygon fill="black" stroke="black" points="419.01,-1054.1 415.51,-1044.1 412.01,-1054.1 419.01,-1054.1"/>
</g>
<!-- check_hdr (header)&#45;&gt;n4_correct (fixes) -->
<g id="edge11" class="edge">
<title>check_hdr (header)&#45;&gt;n4_correct (fixes)</title>
<path fill="none" stroke="black" d="M383.51,-791.7C383.51,-783.98 383.51,-774.71 383.51,-766.11"/>
<polygon fill="black" stroke="black" points="387.01,-766.1 383.51,-756.1 380.01,-766.1 387.01,-766.1"/>
</g>
<!-- skullstrip_first_pass (fsl) -->
<g id="node11" class="node">
<title>skullstrip_first_pass (fsl)</title>
<ellipse fill="none" stroke="black" cx="383.51" cy="-666" rx="98.28" ry="18"/>
<text text-anchor="middle" x="383.51" y="-662.3" font-family="Times,serif" font-size="14.00">skullstrip_first_pass (fsl)</text>
</g>
<!-- n4_correct (fixes)&#45;&gt;skullstrip_first_pass (fsl) -->
<g id="edge12" class="edge">
<title>n4_correct (fixes)&#45;&gt;skullstrip_first_pass (fsl)</title>
<path fill="none" stroke="black" d="M383.51,-719.7C383.51,-711.98 383.51,-702.71 383.51,-694.11"/>
<polygon fill="black" stroke="black" points="387.01,-694.1 383.51,-684.1 380.01,-694.1 387.01,-694.1"/>
</g>
<!-- outputnode (utility) -->
<g id="node12" class="node">
<title>outputnode (utility)</title>
<ellipse fill="none" stroke="black" cx="477.51" cy="-18" rx="79.09" ry="18"/>
<text text-anchor="middle" x="477.51" y="-14.3" font-family="Times,serif" font-size="14.00">outputnode (utility)</text>
</g>
<!-- n4_correct (fixes)&#45;&gt;outputnode (utility) -->
<g id="edge13" class="edge">
<title>n4_correct (fixes)&#45;&gt;outputnode (utility)</title>
<path fill="none" stroke="black" d="M424.86,-722.98C474.89,-703.08 552.51,-661.49 552.51,-595 552.51,-595 552.51,-595 552.51,-161 552.51,-115.52 522.06,-70.34 499.97,-43.55"/>
<polygon fill="black" stroke="black" points="502.56,-41.2 493.42,-35.85 497.23,-45.73 502.56,-41.2"/>
</g>
<!-- skullstrip_second_pass (afni) -->
<g id="node13" class="node">
<title>skullstrip_second_pass (afni)</title>
<ellipse fill="none" stroke="black" cx="129.51" cy="-306" rx="113.98" ry="18"/>
<text text-anchor="middle" x="129.51" y="-302.3" font-family="Times,serif" font-size="14.00">skullstrip_second_pass (afni)</text>
</g>
<!-- fixhdr_unifize (header)&#45;&gt;skullstrip_second_pass (afni) -->
<g id="edge14" class="edge">
<title>fixhdr_unifize (header)&#45;&gt;skullstrip_second_pass (afni)</title>
<path fill="none" stroke="black" d="M137.8,-359.7C136.58,-351.98 135.13,-342.71 133.77,-334.11"/>
<polygon fill="black" stroke="black" points="137.21,-333.44 132.2,-324.1 130.3,-334.53 137.21,-333.44"/>
</g>
<!-- apply_mask (fsl) -->
<g id="node14" class="node">
<title>apply_mask (fsl)</title>
<ellipse fill="none" stroke="black" cx="378.51" cy="-90" rx="70.69" ry="18"/>
<text text-anchor="middle" x="378.51" y="-86.3" font-family="Times,serif" font-size="14.00">apply_mask (fsl)</text>
</g>
<!-- fixhdr_unifize (header)&#45;&gt;apply_mask (fsl) -->
<g id="edge15" class="edge">
<title>fixhdr_unifize (header)&#45;&gt;apply_mask (fsl)</title>
<path fill="none" stroke="black" d="M71.07,-366.11C46.48,-358.54 21.28,-345.72 6.51,-324 -2.48,-310.77 -1.74,-301.71 6.51,-288 73.47,-176.77 226.65,-125.05 314.13,-103.81"/>
<polygon fill="black" stroke="black" points="315.02,-107.19 323.94,-101.48 313.41,-100.38 315.02,-107.19"/>
</g>
<!-- combine_masks (fsl) -->
<g id="node15" class="node">
<title>combine_masks (fsl)</title>
<ellipse fill="none" stroke="black" cx="409.51" cy="-162" rx="85.29" ry="18"/>
<text text-anchor="middle" x="409.51" y="-158.3" font-family="Times,serif" font-size="14.00">combine_masks (fsl)</text>
</g>
<!-- fixhdr_skullstrip2 (header)&#45;&gt;combine_masks (fsl) -->
<g id="edge16" class="edge">
<title>fixhdr_skullstrip2 (header)&#45;&gt;combine_masks (fsl)</title>
<path fill="none" stroke="black" d="M303.52,-216.76C323.08,-206.84 348.27,-194.07 369.18,-183.46"/>
<polygon fill="black" stroke="black" points="370.82,-186.55 378.16,-178.91 367.66,-180.31 370.82,-186.55"/>
</g>
<!-- pre_mask_dilate (fsl) -->
<g id="node10" class="node">
<title>pre_mask_dilate (fsl)</title>
<ellipse fill="none" stroke="black" cx="409.51" cy="-882" rx="86.38" ry="18"/>
<text text-anchor="middle" x="409.51" y="-878.3" font-family="Times,serif" font-size="14.00">pre_mask_dilate (fsl)</text>
</g>
<!-- binarize_mask (nibabel)&#45;&gt;pre_mask_dilate (fsl) -->
<g id="edge17" class="edge">
<title>binarize_mask (nibabel)&#45;&gt;pre_mask_dilate (fsl)</title>
<path fill="none" stroke="black" d="M414.03,-935.7C413.37,-927.98 412.58,-918.71 411.84,-910.11"/>
<polygon fill="black" stroke="black" points="415.32,-909.77 410.98,-900.1 408.35,-910.37 415.32,-909.77"/>
</g>
<!-- pre_mask_dilate (fsl)&#45;&gt;check_hdr (header) -->
<g id="edge18" class="edge">
<title>pre_mask_dilate (fsl)&#45;&gt;check_hdr (header)</title>
<path fill="none" stroke="black" d="M403.09,-863.7C400.16,-855.81 396.63,-846.3 393.37,-837.55"/>
<polygon fill="black" stroke="black" points="396.63,-836.26 389.87,-828.1 390.07,-838.7 396.63,-836.26"/>
</g>
<!-- skullstrip_first_pass (fsl)&#45;&gt;combine_masks (fsl) -->
<g id="edge21" class="edge">
<title>skullstrip_first_pass (fsl)&#45;&gt;combine_masks (fsl)</title>
<path fill="none" stroke="black" d="M437.5,-650.83C458.5,-642.72 480.96,-630.39 495.51,-612 520.62,-580.29 514.51,-563.45 514.51,-523 514.51,-523 514.51,-523 514.51,-305 514.51,-254.9 471.74,-210.91 440.79,-185.63"/>
<polygon fill="black" stroke="black" points="442.83,-182.78 432.82,-179.31 438.48,-188.27 442.83,-182.78"/>
</g>
<!-- skullstrip_first_dilate (fsl) -->
<g id="node16" class="node">
<title>skullstrip_first_dilate (fsl)</title>
<ellipse fill="none" stroke="black" cx="383.51" cy="-594" rx="102.88" ry="18"/>
<text text-anchor="middle" x="383.51" y="-590.3" font-family="Times,serif" font-size="14.00">skullstrip_first_dilate (fsl)</text>
</g>
<!-- skullstrip_first_pass (fsl)&#45;&gt;skullstrip_first_dilate (fsl) -->
<g id="edge19" class="edge">
<title>skullstrip_first_pass (fsl)&#45;&gt;skullstrip_first_dilate (fsl)</title>
<path fill="none" stroke="black" d="M383.51,-647.7C383.51,-639.98 383.51,-630.71 383.51,-622.11"/>
<polygon fill="black" stroke="black" points="387.01,-622.1 383.51,-612.1 380.01,-622.1 387.01,-622.1"/>
</g>
<!-- skullstrip_first_mask (fsl) -->
<g id="node17" class="node">
<title>skullstrip_first_mask (fsl)</title>
<ellipse fill="none" stroke="black" cx="344.51" cy="-522" rx="102.08" ry="18"/>
<text text-anchor="middle" x="344.51" y="-518.3" font-family="Times,serif" font-size="14.00">skullstrip_first_mask (fsl)</text>
</g>
<!-- skullstrip_first_pass (fsl)&#45;&gt;skullstrip_first_mask (fsl) -->
<g id="edge20" class="edge">
<title>skullstrip_first_pass (fsl)&#45;&gt;skullstrip_first_mask (fsl)</title>
<path fill="none" stroke="black" d="M325.49,-651.47C304.81,-643.55 283.65,-631.18 271.51,-612 262.96,-598.48 264.25,-590.25 271.51,-576 278.04,-563.2 289.26,-552.77 300.98,-544.65"/>
<polygon fill="black" stroke="black" points="303.02,-547.5 309.53,-539.15 299.23,-541.61 303.02,-547.5"/>
</g>
<!-- skullstrip_second_pass (afni)&#45;&gt;fixhdr_skullstrip2 (header) -->
<g id="edge22" class="edge">
<title>skullstrip_second_pass (afni)&#45;&gt;fixhdr_skullstrip2 (header)</title>
<path fill="none" stroke="black" d="M162.45,-288.76C182.43,-278.91 208.13,-266.25 229.56,-255.68"/>
<polygon fill="black" stroke="black" points="231.34,-258.71 238.76,-251.15 228.24,-252.43 231.34,-258.71"/>
</g>
<!-- apply_mask (fsl)&#45;&gt;outputnode (utility) -->
<g id="edge23" class="edge">
<title>apply_mask (fsl)&#45;&gt;outputnode (utility)</title>
<path fill="none" stroke="black" d="M401.48,-72.76C414.75,-63.38 431.64,-51.44 446.13,-41.19"/>
<polygon fill="black" stroke="black" points="448.19,-44.02 454.33,-35.39 444.15,-38.31 448.19,-44.02"/>
</g>
<!-- combine_masks (fsl)&#45;&gt;outputnode (utility) -->
<g id="edge25" class="edge">
<title>combine_masks (fsl)&#45;&gt;outputnode (utility)</title>
<path fill="none" stroke="black" d="M429.46,-144.26C439.64,-134.66 451.36,-121.8 458.51,-108 468.48,-88.77 473.22,-64.61 475.48,-46.32"/>
<polygon fill="black" stroke="black" points="478.96,-46.62 476.54,-36.31 472,-45.88 478.96,-46.62"/>
</g>
<!-- combine_masks (fsl)&#45;&gt;apply_mask (fsl) -->
<g id="edge24" class="edge">
<title>combine_masks (fsl)&#45;&gt;apply_mask (fsl)</title>
<path fill="none" stroke="black" d="M402.01,-144.05C398.48,-136.09 394.2,-126.41 390.25,-117.51"/>
<polygon fill="black" stroke="black" points="393.41,-116 386.16,-108.28 387.01,-118.84 393.41,-116"/>
</g>
<!-- skullstrip_first_dilate (fsl)&#45;&gt;skullstrip_first_mask (fsl) -->
<g id="edge26" class="edge">
<title>skullstrip_first_dilate (fsl)&#45;&gt;skullstrip_first_mask (fsl)</title>
<path fill="none" stroke="black" d="M374.07,-576.05C369.59,-568.01 364.13,-558.2 359.13,-549.23"/>
<polygon fill="black" stroke="black" points="362.06,-547.31 354.14,-540.28 355.95,-550.71 362.06,-547.31"/>
</g>
<!-- unifize (afni) -->
<g id="node18" class="node">
<title>unifize (afni)</title>
<ellipse fill="none" stroke="black" cx="322.51" cy="-450" rx="56.59" ry="18"/>
<text text-anchor="middle" x="322.51" y="-446.3" font-family="Times,serif" font-size="14.00">unifize (afni)</text>
</g>
<!-- skullstrip_first_mask (fsl)&#45;&gt;unifize (afni) -->
<g id="edge27" class="edge">
<title>skullstrip_first_mask (fsl)&#45;&gt;unifize (afni)</title>
<path fill="none" stroke="black" d="M339.08,-503.7C336.63,-495.9 333.67,-486.51 330.95,-477.83"/>
<polygon fill="black" stroke="black" points="334.23,-476.59 327.89,-468.1 327.55,-478.69 334.23,-476.59"/>
</g>
<!-- unifize (afni)&#45;&gt;fixhdr_unifize (header) -->
<g id="edge28" class="edge">
<title>unifize (afni)&#45;&gt;fixhdr_unifize (header)</title>
<path fill="none" stroke="black" d="M287.85,-435.67C260.09,-424.99 220.8,-409.88 189.77,-397.95"/>
<polygon fill="black" stroke="black" points="191.02,-394.68 180.43,-394.35 188.51,-401.21 191.02,-394.68"/>
</g>
</g>
</svg>
