<?xml version="1.0" encoding="UTF-8" standalone="no"?>
<!DOCTYPE svg PUBLIC "-//W3C//DTD SVG 1.1//EN"
 "http://www.w3.org/Graphics/SVG/1.1/DTD/svg11.dtd">
<!-- Generated by graphviz version 2.46.1 (20210213.1702)
 -->
<!-- Pages: 1 -->
<svg width="416pt" height="404pt"
 viewBox="0.00 0.00 416.13 404.00" xmlns="http://www.w3.org/2000/svg" xmlns:xlink="http://www.w3.org/1999/xlink">
<g id="graph0" class="graph" transform="scale(1 1) rotate(0) translate(4 400)">
<polygon fill="white" stroke="transparent" points="-4,4 -4,-400 412.13,-400 412.13,4 -4,4"/>
<!-- inputnode (utility) -->
<g id="node1" class="node">
<title>inputnode (utility)</title>
<ellipse fill="none" stroke="black" cx="172.84" cy="-378" rx="75.29" ry="18"/>
<text text-anchor="middle" x="172.84" y="-374.3" font-family="Times,serif" font-size="14.00">inputnode (utility)</text>
</g>
<!-- skullstrip_first_pass (fsl) -->
<g id="node2" class="node">
<title>skullstrip_first_pass (fsl)</title>
<ellipse fill="none" stroke="black" cx="172.84" cy="-306" rx="98.28" ry="18"/>
<text text-anchor="middle" x="172.84" y="-302.3" font-family="Times,serif" font-size="14.00">skullstrip_first_pass (fsl)</text>
</g>
<!-- inputnode (utility)&#45;&gt;skullstrip_first_pass (fsl) -->
<g id="edge1" class="edge">
<title>inputnode (utility)&#45;&gt;skullstrip_first_pass (fsl)</title>
<path fill="none" stroke="black" d="M172.84,-359.7C172.84,-351.98 172.84,-342.71 172.84,-334.11"/>
<polygon fill="black" stroke="black" points="176.34,-334.1 172.84,-324.1 169.34,-334.1 176.34,-334.1"/>
</g>
<!-- apply_mask (fsl) -->
<g id="node3" class="node">
<title>apply_mask (fsl)</title>
<ellipse fill="none" stroke="black" cx="70.84" cy="-90" rx="70.69" ry="18"/>
<text text-anchor="middle" x="70.84" y="-86.3" font-family="Times,serif" font-size="14.00">apply_mask (fsl)</text>
</g>
<!-- inputnode (utility)&#45;&gt;apply_mask (fsl) -->
<g id="edge2" class="edge">
<title>inputnode (utility)&#45;&gt;apply_mask (fsl)</title>
<path fill="none" stroke="black" d="M131.37,-362.96C110,-354.22 84.57,-341.31 65.84,-324 38.47,-298.7 32.76,-287.93 22.84,-252 9.57,-203.89 35.49,-148.17 54.13,-116.5"/>
<polygon fill="black" stroke="black" points="57.18,-118.22 59.4,-107.86 51.2,-114.58 57.18,-118.22"/>
</g>
<!-- mask_reportlet (reportlets) -->
<g id="node4" class="node">
<title>mask_reportlet (reportlets)</title>
<ellipse fill="none" stroke="black" cx="302.84" cy="-90" rx="105.08" ry="18"/>
<text text-anchor="middle" x="302.84" y="-86.3" font-family="Times,serif" font-size="14.00">mask_reportlet (reportlets)</text>
</g>
<!-- inputnode (utility)&#45;&gt;mask_reportlet (reportlets) -->
<g id="edge3" class="edge">
<title>inputnode (utility)&#45;&gt;mask_reportlet (reportlets)</title>
<path fill="none" stroke="black" d="M222.13,-364.33C243.32,-356.3 266.29,-343.61 279.84,-324 323.36,-261.02 315.3,-164.6 307.99,-118.03"/>
<polygon fill="black" stroke="black" points="311.43,-117.38 306.33,-108.1 304.53,-118.54 311.43,-117.38"/>
</g>
<!-- skullstrip_second_pass (afni) -->
<g id="node5" class="node">
<title>skullstrip_second_pass (afni)</title>
<ellipse fill="none" stroke="black" cx="145.84" cy="-234" rx="113.98" ry="18"/>
<text text-anchor="middle" x="145.84" y="-230.3" font-family="Times,serif" font-size="14.00">skullstrip_second_pass (afni)</text>
</g>
<!-- skullstrip_first_pass (fsl)&#45;&gt;skullstrip_second_pass (afni) -->
<g id="edge4" class="edge">
<title>skullstrip_first_pass (fsl)&#45;&gt;skullstrip_second_pass (afni)</title>
<path fill="none" stroke="black" d="M166.17,-287.7C163.13,-279.81 159.46,-270.3 156.08,-261.55"/>
<polygon fill="black" stroke="black" points="159.31,-260.17 152.44,-252.1 152.77,-262.69 159.31,-260.17"/>
</g>
<!-- combine_masks (fsl) -->
<g id="node6" class="node">
<title>combine_masks (fsl)</title>
<ellipse fill="none" stroke="black" cx="169.84" cy="-162" rx="85.29" ry="18"/>
<text text-anchor="middle" x="169.84" y="-158.3" font-family="Times,serif" font-size="14.00">combine_masks (fsl)</text>
</g>
<!-- skullstrip_first_pass (fsl)&#45;&gt;combine_masks (fsl) -->
<g id="edge5" class="edge">
<title>skullstrip_first_pass (fsl)&#45;&gt;combine_masks (fsl)</title>
<path fill="none" stroke="black" d="M221.27,-290.21C239.5,-282.02 258.34,-269.79 268.84,-252 276.98,-238.22 277.06,-229.73 268.84,-216 259.55,-200.48 243.99,-189.25 227.92,-181.24"/>
<polygon fill="black" stroke="black" points="228.99,-177.88 218.45,-176.88 226.07,-184.24 228.99,-177.88"/>
</g>
<!-- outputnode (utility) -->
<g id="node7" class="node">
<title>outputnode (utility)</title>
<ellipse fill="none" stroke="black" cx="169.84" cy="-18" rx="79.09" ry="18"/>
<text text-anchor="middle" x="169.84" y="-14.3" font-family="Times,serif" font-size="14.00">outputnode (utility)</text>
</g>
<!-- apply_mask (fsl)&#45;&gt;outputnode (utility) -->
<g id="edge6" class="edge">
<title>apply_mask (fsl)&#45;&gt;outputnode (utility)</title>
<path fill="none" stroke="black" d="M93.81,-72.76C107.08,-63.38 123.97,-51.44 138.46,-41.19"/>
<polygon fill="black" stroke="black" points="140.52,-44.02 146.66,-35.39 136.48,-38.31 140.52,-44.02"/>
</g>
<!-- mask_reportlet (reportlets)&#45;&gt;outputnode (utility) -->
<g id="edge7" class="edge">
<title>mask_reportlet (reportlets)&#45;&gt;outputnode (utility)</title>
<path fill="none" stroke="black" d="M272,-72.76C253.23,-62.89 229.09,-50.18 208.98,-39.6"/>
<polygon fill="black" stroke="black" points="210.54,-36.47 200.07,-34.91 207.28,-42.66 210.54,-36.47"/>
</g>
<!-- skullstrip_second_pass (afni)&#45;&gt;combine_masks (fsl) -->
<g id="edge8" class="edge">
<title>skullstrip_second_pass (afni)&#45;&gt;combine_masks (fsl)</title>
<path fill="none" stroke="black" d="M151.78,-215.7C154.45,-207.9 157.67,-198.51 160.65,-189.83"/>
<polygon fill="black" stroke="black" points="164.05,-190.7 163.98,-180.1 157.43,-188.43 164.05,-190.7"/>
</g>
<!-- combine_masks (fsl)&#45;&gt;apply_mask (fsl) -->
<g id="edge10" class="edge">
<title>combine_masks (fsl)&#45;&gt;apply_mask (fsl)</title>
<path fill="none" stroke="black" d="M146.63,-144.59C133.26,-135.13 116.27,-123.12 101.77,-112.87"/>
<polygon fill="black" stroke="black" points="103.75,-109.98 93.57,-107.07 99.71,-115.7 103.75,-109.98"/>
</g>
<!-- combine_masks (fsl)&#45;&gt;mask_reportlet (reportlets) -->
<g id="edge11" class="edge">
<title>combine_masks (fsl)&#45;&gt;mask_reportlet (reportlets)</title>
<path fill="none" stroke="black" d="M200.02,-145.12C218.63,-135.32 242.72,-122.65 262.9,-112.02"/>
<polygon fill="black" stroke="black" points="264.64,-115.06 271.86,-107.31 261.38,-108.87 264.64,-115.06"/>
</g>
<!-- combine_masks (fsl)&#45;&gt;outputnode (utility) -->
<g id="edge9" class="edge">
<title>combine_masks (fsl)&#45;&gt;outputnode (utility)</title>
<path fill="none" stroke="black" d="M169.84,-143.87C169.84,-119.67 169.84,-75.21 169.84,-46.39"/>
<polygon fill="black" stroke="black" points="173.34,-46.19 169.84,-36.19 166.34,-46.19 173.34,-46.19"/>
</g>
</g>
</svg>
