<?xml version="1.0" encoding="UTF-8" standalone="no"?>
<!DOCTYPE svg PUBLIC "-//W3C//DTD SVG 1.1//EN"
 "http://www.w3.org/Graphics/SVG/1.1/DTD/svg11.dtd">
<!-- Generated by graphviz version 2.46.1 (20210213.1702)
 -->
<!-- Pages: 1 -->
<svg width="462pt" height="692pt"
 viewBox="0.00 0.00 461.50 692.00" xmlns="http://www.w3.org/2000/svg" xmlns:xlink="http://www.w3.org/1999/xlink">
<g id="graph0" class="graph" transform="scale(1 1) rotate(0) translate(4 688)">
<polygon fill="white" stroke="transparent" points="-4,4 -4,-688 457.5,-688 457.5,4 -4,4"/>
<!-- inputnode (utility) -->
<g id="node1" class="node">
<title>inputnode (utility)</title>
<ellipse fill="none" stroke="black" cx="193.36" cy="-666" rx="75.29" ry="18"/>
<text text-anchor="middle" x="193.36" y="-662.3" font-family="Times,serif" font-size="14.00">inputnode (utility)</text>
</g>
<!-- merge_ltas (utility) -->
<g id="node2" class="node">
<title>merge_ltas (utility)</title>
<ellipse fill="none" stroke="black" cx="121.36" cy="-162" rx="79.09" ry="18"/>
<text text-anchor="middle" x="121.36" y="-158.3" font-family="Times,serif" font-size="14.00">merge_ltas (utility)</text>
</g>
<!-- inputnode (utility)&#45;&gt;merge_ltas (utility) -->
<g id="edge1" class="edge">
<title>inputnode (utility)&#45;&gt;merge_ltas (utility)</title>
<path fill="none" stroke="black" d="M144.91,-652.2C88.03,-633.9 1.36,-594.31 1.36,-523 1.36,-523 1.36,-523 1.36,-305 1.36,-264.55 -4.08,-248.23 20.36,-216 32.02,-200.62 49.44,-189.28 66.55,-181.11"/>
<polygon fill="black" stroke="black" points="68.27,-184.18 75.98,-176.9 65.42,-177.78 68.27,-184.18"/>
</g>
<!-- mri_coreg (freesurfer) -->
<g id="node3" class="node">
<title>mri_coreg (freesurfer)</title>
<ellipse fill="none" stroke="black" cx="193.36" cy="-594" rx="89.88" ry="18"/>
<text text-anchor="middle" x="193.36" y="-590.3" font-family="Times,serif" font-size="14.00">mri_coreg (freesurfer)</text>
</g>
<!-- inputnode (utility)&#45;&gt;mri_coreg (freesurfer) -->
<g id="edge2" class="edge">
<title>inputnode (utility)&#45;&gt;mri_coreg (freesurfer)</title>
<path fill="none" stroke="black" d="M193.36,-647.7C193.36,-639.98 193.36,-630.71 193.36,-622.11"/>
<polygon fill="black" stroke="black" points="196.86,-622.1 193.36,-612.1 189.86,-622.1 196.86,-622.1"/>
</g>
<!-- bbregister (freesurfer) -->
<g id="node4" class="node">
<title>bbregister (freesurfer)</title>
<ellipse fill="none" stroke="black" cx="311.36" cy="-522" rx="88.28" ry="18"/>
<text text-anchor="middle" x="311.36" y="-518.3" font-family="Times,serif" font-size="14.00">bbregister (freesurfer)</text>
</g>
<!-- inputnode (utility)&#45;&gt;bbregister (freesurfer) -->
<g id="edge3" class="edge">
<title>inputnode (utility)&#45;&gt;bbregister (freesurfer)</title>
<path fill="none" stroke="black" d="M237.1,-651.22C256.79,-642.87 278.65,-630.23 292.36,-612 305.68,-594.29 310.11,-569.27 311.39,-550.27"/>
<polygon fill="black" stroke="black" points="314.89,-550.28 311.82,-540.15 307.9,-549.99 314.89,-550.28"/>
</g>
<!-- concat_xfm (nitransforms) -->
<g id="node5" class="node">
<title>concat_xfm (nitransforms)</title>
<ellipse fill="none" stroke="black" cx="121.36" cy="-90" rx="105.88" ry="18"/>
<text text-anchor="middle" x="121.36" y="-86.3" font-family="Times,serif" font-size="14.00">concat_xfm (nitransforms)</text>
</g>
<!-- merge_ltas (utility)&#45;&gt;concat_xfm (nitransforms) -->
<g id="edge4" class="edge">
<title>merge_ltas (utility)&#45;&gt;concat_xfm (nitransforms)</title>
<path fill="none" stroke="black" d="M121.36,-143.7C121.36,-135.98 121.36,-126.71 121.36,-118.11"/>
<polygon fill="black" stroke="black" points="124.86,-118.1 121.36,-108.1 117.86,-118.1 124.86,-118.1"/>
</g>
<!-- mri_coreg (freesurfer)&#45;&gt;bbregister (freesurfer) -->
<g id="edge5" class="edge">
<title>mri_coreg (freesurfer)&#45;&gt;bbregister (freesurfer)</title>
<path fill="none" stroke="black" d="M220.73,-576.76C236.96,-567.13 257.73,-554.81 275.29,-544.4"/>
<polygon fill="black" stroke="black" points="277.33,-547.26 284.14,-539.15 273.75,-541.24 277.33,-547.26"/>
</g>
<!-- transforms (utility) -->
<g id="node7" class="node">
<title>transforms (utility)</title>
<ellipse fill="none" stroke="black" cx="157.36" cy="-450" rx="77.99" ry="18"/>
<text text-anchor="middle" x="157.36" y="-446.3" font-family="Times,serif" font-size="14.00">transforms (utility)</text>
</g>
<!-- mri_coreg (freesurfer)&#45;&gt;transforms (utility) -->
<g id="edge6" class="edge">
<title>mri_coreg (freesurfer)&#45;&gt;transforms (utility)</title>
<path fill="none" stroke="black" d="M189.02,-575.87C182.86,-551.56 171.51,-506.82 164.21,-478.01"/>
<polygon fill="black" stroke="black" points="167.57,-477.02 161.72,-468.19 160.78,-478.74 167.57,-477.02"/>
</g>
<!-- reports (utility) -->
<g id="node8" class="node">
<title>reports (utility)</title>
<ellipse fill="none" stroke="black" cx="317.36" cy="-450" rx="64.19" ry="18"/>
<text text-anchor="middle" x="317.36" y="-446.3" font-family="Times,serif" font-size="14.00">reports (utility)</text>
</g>
<!-- mri_coreg (freesurfer)&#45;&gt;reports (utility) -->
<g id="edge7" class="edge">
<title>mri_coreg (freesurfer)&#45;&gt;reports (utility)</title>
<path fill="none" stroke="black" d="M193.29,-575.78C194.07,-556.4 198.03,-524.89 214.36,-504 227.29,-487.47 246.8,-475.6 265.37,-467.35"/>
<polygon fill="black" stroke="black" points="266.78,-470.56 274.66,-463.48 264.09,-464.1 266.78,-470.56"/>
</g>
<!-- bbregister (freesurfer)&#45;&gt;transforms (utility) -->
<g id="edge8" class="edge">
<title>bbregister (freesurfer)&#45;&gt;transforms (utility)</title>
<path fill="none" stroke="black" d="M276.8,-505.29C254.18,-495.01 224.44,-481.49 200.3,-470.52"/>
<polygon fill="black" stroke="black" points="201.56,-467.25 191.01,-466.3 198.67,-473.62 201.56,-467.25"/>
</g>
<!-- bbregister (freesurfer)&#45;&gt;reports (utility) -->
<g id="edge9" class="edge">
<title>bbregister (freesurfer)&#45;&gt;reports (utility)</title>
<path fill="none" stroke="black" d="M312.84,-503.7C313.51,-495.98 314.3,-486.71 315.04,-478.11"/>
<polygon fill="black" stroke="black" points="318.53,-478.37 315.89,-468.1 311.55,-477.77 318.53,-478.37"/>
</g>
<!-- outputnode (utility) -->
<g id="node6" class="node">
<title>outputnode (utility)</title>
<ellipse fill="none" stroke="black" cx="255.36" cy="-18" rx="79.09" ry="18"/>
<text text-anchor="middle" x="255.36" y="-14.3" font-family="Times,serif" font-size="14.00">outputnode (utility)</text>
</g>
<!-- concat_xfm (nitransforms)&#45;&gt;outputnode (utility) -->
<g id="edge10" class="edge">
<title>concat_xfm (nitransforms)&#45;&gt;outputnode (utility)</title>
<path fill="none" stroke="black" d="M152.44,-72.76C171.48,-62.82 196.02,-50 216.36,-39.38"/>
<polygon fill="black" stroke="black" points="218.13,-42.4 225.37,-34.67 214.89,-36.19 218.13,-42.4"/>
</g>
<!-- lta_ras2ras (freesurfer) -->
<g id="node9" class="node">
<title>lta_ras2ras (freesurfer)</title>
<ellipse fill="none" stroke="black" cx="230.36" cy="-378" rx="90.98" ry="18"/>
<text text-anchor="middle" x="230.36" y="-374.3" font-family="Times,serif" font-size="14.00">lta_ras2ras (freesurfer)</text>
</g>
<!-- transforms (utility)&#45;&gt;lta_ras2ras (freesurfer) -->
<g id="edge11" class="edge">
<title>transforms (utility)&#45;&gt;lta_ras2ras (freesurfer)</title>
<path fill="none" stroke="black" d="M174.66,-432.41C183.87,-423.58 195.35,-412.57 205.5,-402.84"/>
<polygon fill="black" stroke="black" points="208.14,-405.16 212.93,-395.71 203.29,-400.11 208.14,-405.16"/>
</g>
<!-- select_transform (utility) -->
<g id="node10" class="node">
<title>select_transform (utility)</title>
<ellipse fill="none" stroke="black" cx="128.36" cy="-234" rx="98.58" ry="18"/>
<text text-anchor="middle" x="128.36" y="-230.3" font-family="Times,serif" font-size="14.00">select_transform (utility)</text>
</g>
<!-- transforms (utility)&#45;&gt;select_transform (utility) -->
<g id="edge12" class="edge">
<title>transforms (utility)&#45;&gt;select_transform (utility)</title>
<path fill="none" stroke="black" d="M146.9,-431.94C141.16,-421.83 134.41,-408.58 130.36,-396 115.58,-350.07 115.31,-336.08 119.36,-288 120.08,-279.5 121.43,-270.31 122.87,-262.01"/>
<polygon fill="black" stroke="black" points="126.33,-262.56 124.71,-252.09 119.45,-261.29 126.33,-262.56"/>
</g>
<!-- select_report (utility) -->
<g id="node12" class="node">
<title>select_report (utility)</title>
<ellipse fill="none" stroke="black" cx="368.36" cy="-234" rx="85.29" ry="18"/>
<text text-anchor="middle" x="368.36" y="-230.3" font-family="Times,serif" font-size="14.00">select_report (utility)</text>
</g>
<!-- reports (utility)&#45;&gt;select_report (utility) -->
<g id="edge13" class="edge">
<title>reports (utility)&#45;&gt;select_report (utility)</title>
<path fill="none" stroke="black" d="M325.43,-432.09C336.24,-408.49 355.05,-364.08 363.36,-324 367.57,-303.67 368.74,-280.21 368.9,-262.48"/>
<polygon fill="black" stroke="black" points="372.4,-262.25 368.89,-252.26 365.4,-262.26 372.4,-262.25"/>
</g>
<!-- compare_transforms (utility) -->
<g id="node11" class="node">
<title>compare_transforms (utility)</title>
<ellipse fill="none" stroke="black" cx="241.36" cy="-306" rx="113.18" ry="18"/>
<text text-anchor="middle" x="241.36" y="-302.3" font-family="Times,serif" font-size="14.00">compare_transforms (utility)</text>
</g>
<!-- lta_ras2ras (freesurfer)&#45;&gt;compare_transforms (utility) -->
<g id="edge14" class="edge">
<title>lta_ras2ras (freesurfer)&#45;&gt;compare_transforms (utility)</title>
<path fill="none" stroke="black" d="M233.08,-359.7C234.29,-351.98 235.75,-342.71 237.1,-334.11"/>
<polygon fill="black" stroke="black" points="240.58,-334.53 238.67,-324.1 233.66,-333.44 240.58,-334.53"/>
</g>
<!-- select_transform (utility)&#45;&gt;merge_ltas (utility) -->
<g id="edge15" class="edge">
<title>select_transform (utility)&#45;&gt;merge_ltas (utility)</title>
<path fill="none" stroke="black" d="M126.63,-215.7C125.86,-207.98 124.93,-198.71 124.07,-190.11"/>
<polygon fill="black" stroke="black" points="127.55,-189.71 123.07,-180.1 120.58,-190.4 127.55,-189.71"/>
</g>
<!-- compare_transforms (utility)&#45;&gt;outputnode (utility) -->
<g id="edge16" class="edge">
<title>compare_transforms (utility)&#45;&gt;outputnode (utility)</title>
<path fill="none" stroke="black" d="M242.19,-287.97C244.53,-240.29 251.14,-105.18 254.01,-46.63"/>
<polygon fill="black" stroke="black" points="257.52,-46.47 254.51,-36.31 250.53,-46.12 257.52,-46.47"/>
</g>
<!-- compare_transforms (utility)&#45;&gt;select_transform (utility) -->
<g id="edge17" class="edge">
<title>compare_transforms (utility)&#45;&gt;select_transform (utility)</title>
<path fill="none" stroke="black" d="M214.58,-288.41C199.38,-279 180.17,-267.1 163.75,-256.92"/>
<polygon fill="black" stroke="black" points="165.29,-253.76 154.95,-251.47 161.61,-259.71 165.29,-253.76"/>
</g>
<!-- compare_transforms (utility)&#45;&gt;select_report (utility) -->
<g id="edge18" class="edge">
<title>compare_transforms (utility)&#45;&gt;select_report (utility)</title>
<path fill="none" stroke="black" d="M271.14,-288.59C288.78,-278.86 311.31,-266.44 330.24,-256.01"/>
<polygon fill="black" stroke="black" points="332.14,-258.96 339.21,-251.07 328.76,-252.83 332.14,-258.96"/>
</g>
<!-- select_report (utility)&#45;&gt;outputnode (utility) -->
<g id="edge19" class="edge">
<title>select_report (utility)&#45;&gt;outputnode (utility)</title>
<path fill="none" stroke="black" d="M359.3,-215.85C339.54,-178.43 292.46,-89.25 269.05,-44.93"/>
<polygon fill="black" stroke="black" points="272.07,-43.14 264.3,-35.94 265.88,-46.41 272.07,-43.14"/>
</g>
</g>
</svg>
