<?xml version="1.0" encoding="UTF-8" standalone="no"?>
<!DOCTYPE svg PUBLIC "-//W3C//DTD SVG 1.1//EN"
 "http://www.w3.org/Graphics/SVG/1.1/DTD/svg11.dtd">
<!-- Generated by graphviz version 2.46.1 (20210213.1702)
 -->
<!-- Pages: 1 -->
<svg width="886pt" height="692pt"
 viewBox="0.00 0.00 885.58 692.00" xmlns="http://www.w3.org/2000/svg" xmlns:xlink="http://www.w3.org/1999/xlink">
<g id="graph0" class="graph" transform="scale(1 1) rotate(0) translate(4 688)">
<polygon fill="white" stroke="transparent" points="-4,4 -4,-688 881.58,-688 881.58,4 -4,4"/>
<!-- inputnode (utility) -->
<g id="node1" class="node">
<title>inputnode (utility)</title>
<ellipse fill="none" stroke="black" cx="115.58" cy="-666" rx="75.29" ry="18"/>
<text text-anchor="middle" x="115.58" y="-662.3" font-family="Times,serif" font-size="14.00">inputnode (utility)</text>
</g>
<!-- truncate_images (ants) -->
<g id="node2" class="node">
<title>truncate_images (ants)</title>
<ellipse fill="none" stroke="black" cx="404.58" cy="-594" rx="90.98" ry="18"/>
<text text-anchor="middle" x="404.58" y="-590.3" font-family="Times,serif" font-size="14.00">truncate_images (ants)</text>
</g>
<!-- inputnode (utility)&#45;&gt;truncate_images (ants) -->
<g id="edge1" class="edge">
<title>inputnode (utility)&#45;&gt;truncate_images (ants)</title>
<path fill="none" stroke="black" d="M166.58,-652.65C214.69,-640.99 287.02,-623.47 339.31,-610.81"/>
<polygon fill="black" stroke="black" points="340.27,-614.18 349.16,-608.42 338.62,-607.38 340.27,-614.18"/>
</g>
<!-- inu_n4_final (ants) -->
<g id="node3" class="node">
<title>inu_n4_final (ants)</title>
<ellipse fill="none" stroke="black" cx="106.58" cy="-162" rx="77.19" ry="18"/>
<text text-anchor="middle" x="106.58" y="-158.3" font-family="Times,serif" font-size="14.00">inu_n4_final (ants)</text>
</g>
<!-- inputnode (utility)&#45;&gt;inu_n4_final (ants) -->
<g id="edge2" class="edge">
<title>inputnode (utility)&#45;&gt;inu_n4_final (ants)</title>
<path fill="none" stroke="black" d="M99.46,-648.19C77.15,-623.09 39.58,-573.33 39.58,-523 39.58,-523 39.58,-523 39.58,-305 39.58,-260.48 66.85,-214.97 86.59,-187.85"/>
<polygon fill="black" stroke="black" points="89.49,-189.82 92.7,-179.72 83.9,-185.62 89.49,-189.82"/>
</g>
<!-- init_aff (ants) -->
<g id="node4" class="node">
<title>init_aff (ants)</title>
<ellipse fill="none" stroke="black" cx="301.58" cy="-378" rx="59.29" ry="18"/>
<text text-anchor="middle" x="301.58" y="-374.3" font-family="Times,serif" font-size="14.00">init_aff (ants)</text>
</g>
<!-- inputnode (utility)&#45;&gt;init_aff (ants) -->
<g id="edge3" class="edge">
<title>inputnode (utility)&#45;&gt;init_aff (ants)</title>
<path fill="none" stroke="black" d="M120.22,-647.84C123,-637.48 126.56,-624 129.58,-612 149.64,-532.23 119.11,-494.5 172.58,-432 190.3,-411.29 217.37,-398.55 242.15,-390.77"/>
<polygon fill="black" stroke="black" points="243.26,-394.09 251.87,-387.92 241.29,-387.37 243.26,-394.09"/>
</g>
<!-- norm (fixes) -->
<g id="node5" class="node">
<title>norm (fixes)</title>
<ellipse fill="none" stroke="black" cx="346.58" cy="-306" rx="54.69" ry="18"/>
<text text-anchor="middle" x="346.58" y="-302.3" font-family="Times,serif" font-size="14.00">norm (fixes)</text>
</g>
<!-- inputnode (utility)&#45;&gt;norm (fixes) -->
<g id="edge4" class="edge">
<title>inputnode (utility)&#45;&gt;norm (fixes)</title>
<path fill="none" stroke="black" d="M115.58,-647.95C115.58,-621.29 115.58,-568.11 115.58,-523 115.58,-523 115.58,-523 115.58,-449 115.58,-367.9 220.19,-331.65 288.62,-316.61"/>
<polygon fill="black" stroke="black" points="289.37,-320.03 298.43,-314.54 287.93,-313.18 289.37,-320.03"/>
</g>
<!-- map_brainmask (fixes) -->
<g id="node6" class="node">
<title>map_brainmask (fixes)</title>
<ellipse fill="none" stroke="black" cx="364.58" cy="-234" rx="92.88" ry="18"/>
<text text-anchor="middle" x="364.58" y="-230.3" font-family="Times,serif" font-size="14.00">map_brainmask (fixes)</text>
</g>
<!-- inputnode (utility)&#45;&gt;map_brainmask (fixes) -->
<g id="edge5" class="edge">
<title>inputnode (utility)&#45;&gt;map_brainmask (fixes)</title>
<path fill="none" stroke="black" d="M185.9,-659.28C374.54,-642.98 877.58,-592.98 877.58,-523 877.58,-523 877.58,-523 877.58,-377 877.58,-291.41 608.97,-255.33 460.48,-241.93"/>
<polygon fill="black" stroke="black" points="460.71,-238.44 450.44,-241.04 460.1,-245.41 460.71,-238.44"/>
</g>
<!-- map_wmmask (fixes) -->
<g id="node7" class="node">
<title>map_wmmask (fixes)</title>
<ellipse fill="none" stroke="black" cx="165.58" cy="-234" rx="88.28" ry="18"/>
<text text-anchor="middle" x="165.58" y="-230.3" font-family="Times,serif" font-size="14.00">map_wmmask (fixes)</text>
</g>
<!-- inputnode (utility)&#45;&gt;map_wmmask (fixes) -->
<g id="edge6" class="edge">
<title>inputnode (utility)&#45;&gt;map_wmmask (fixes)</title>
<path fill="none" stroke="black" d="M107.89,-647.91C96.79,-621.62 77.58,-569.45 77.58,-523 77.58,-523 77.58,-523 77.58,-377 77.58,-336.55 74.99,-322.2 96.58,-288 104.36,-275.67 116.09,-265.1 127.68,-256.71"/>
<polygon fill="black" stroke="black" points="129.76,-259.54 136.04,-251 125.81,-253.76 129.76,-259.54"/>
</g>
<!-- atropos_wf -->
<g id="node8" class="node">
<title>atropos_wf</title>
<ellipse fill="none" stroke="black" cx="136.58" cy="-90" rx="50.09" ry="18"/>
<text text-anchor="middle" x="136.58" y="-86.3" font-family="Times,serif" font-size="14.00">atropos_wf</text>
</g>
<!-- inputnode (utility)&#45;&gt;atropos_wf -->
<g id="edge7" class="edge">
<title>inputnode (utility)&#45;&gt;atropos_wf</title>
<path fill="none" stroke="black" d="M90,-648.96C56.38,-625.68 1.58,-579.12 1.58,-523 1.58,-523 1.58,-523 1.58,-233 1.58,-192.55 -4.74,-175.54 20.58,-144 36.71,-123.9 62.14,-111.13 85.09,-103.17"/>
<polygon fill="black" stroke="black" points="86.3,-106.45 94.74,-100.04 84.15,-99.79 86.3,-106.45"/>
</g>
<!-- inu_n4 (ants) -->
<g id="node9" class="node">
<title>inu_n4 (ants)</title>
<ellipse fill="none" stroke="black" cx="483.58" cy="-522" rx="57.69" ry="18"/>
<text text-anchor="middle" x="483.58" y="-518.3" font-family="Times,serif" font-size="14.00">inu_n4 (ants)</text>
</g>
<!-- truncate_images (ants)&#45;&gt;inu_n4 (ants) -->
<g id="edge8" class="edge">
<title>truncate_images (ants)&#45;&gt;inu_n4 (ants)</title>
<path fill="none" stroke="black" d="M423.7,-576.05C433.84,-567.07 446.45,-555.9 457.48,-546.12"/>
<polygon fill="black" stroke="black" points="460.01,-548.56 465.18,-539.31 455.37,-543.32 460.01,-548.56"/>
</g>
<!-- inu_n4_final (ants)&#45;&gt;atropos_wf -->
<g id="edge10" class="edge">
<title>inu_n4_final (ants)&#45;&gt;atropos_wf</title>
<path fill="none" stroke="black" d="M113.84,-144.05C117.25,-136.09 121.4,-126.41 125.22,-117.51"/>
<polygon fill="black" stroke="black" points="128.45,-118.85 129.18,-108.28 122.02,-116.09 128.45,-118.85"/>
</g>
<!-- apply_mask (nibabel) -->
<g id="node10" class="node">
<title>apply_mask (nibabel)</title>
<ellipse fill="none" stroke="black" cx="307.58" cy="-90" rx="87.99" ry="18"/>
<text text-anchor="middle" x="307.58" y="-86.3" font-family="Times,serif" font-size="14.00">apply_mask (nibabel)</text>
</g>
<!-- inu_n4_final (ants)&#45;&gt;apply_mask (nibabel) -->
<g id="edge9" class="edge">
<title>inu_n4_final (ants)&#45;&gt;apply_mask (nibabel)</title>
<path fill="none" stroke="black" d="M147.74,-146.67C178.89,-135.82 221.89,-120.84 255.45,-109.16"/>
<polygon fill="black" stroke="black" points="256.8,-112.39 265.09,-105.8 254.49,-105.78 256.8,-112.39"/>
</g>
<!-- init_aff (ants)&#45;&gt;norm (fixes) -->
<g id="edge11" class="edge">
<title>init_aff (ants)&#45;&gt;norm (fixes)</title>
<path fill="none" stroke="black" d="M312.47,-360.05C317.83,-351.71 324.41,-341.49 330.35,-332.25"/>
<polygon fill="black" stroke="black" points="333.32,-334.09 335.79,-323.79 327.43,-330.31 333.32,-334.09"/>
</g>
<!-- norm (fixes)&#45;&gt;map_brainmask (fixes) -->
<g id="edge12" class="edge">
<title>norm (fixes)&#45;&gt;map_brainmask (fixes)</title>
<path fill="none" stroke="black" d="M350.94,-288.05C352.94,-280.26 355.37,-270.82 357.62,-262.08"/>
<polygon fill="black" stroke="black" points="361.04,-262.83 360.14,-252.28 354.26,-261.09 361.04,-262.83"/>
</g>
<!-- norm (fixes)&#45;&gt;map_wmmask (fixes) -->
<g id="edge13" class="edge">
<title>norm (fixes)&#45;&gt;map_wmmask (fixes)</title>
<path fill="none" stroke="black" d="M312.53,-291.83C284.79,-281.1 245.25,-265.81 214.17,-253.79"/>
<polygon fill="black" stroke="black" points="215.41,-250.52 204.82,-250.18 212.88,-257.05 215.41,-250.52"/>
</g>
<!-- thr_brainmask (ants) -->
<g id="node11" class="node">
<title>thr_brainmask (ants)</title>
<ellipse fill="none" stroke="black" cx="323.58" cy="-162" rx="84.49" ry="18"/>
<text text-anchor="middle" x="323.58" y="-158.3" font-family="Times,serif" font-size="14.00">thr_brainmask (ants)</text>
</g>
<!-- map_brainmask (fixes)&#45;&gt;thr_brainmask (ants) -->
<g id="edge14" class="edge">
<title>map_brainmask (fixes)&#45;&gt;thr_brainmask (ants)</title>
<path fill="none" stroke="black" d="M354.65,-216.05C349.89,-207.92 344.08,-198 338.77,-188.94"/>
<polygon fill="black" stroke="black" points="341.77,-187.14 333.7,-180.28 335.73,-190.67 341.77,-187.14"/>
</g>
<!-- map_wmmask (fixes)&#45;&gt;inu_n4_final (ants) -->
<g id="edge15" class="edge">
<title>map_wmmask (fixes)&#45;&gt;inu_n4_final (ants)</title>
<path fill="none" stroke="black" d="M151.3,-216.05C144.12,-207.54 135.29,-197.07 127.38,-187.68"/>
<polygon fill="black" stroke="black" points="129.85,-185.18 120.73,-179.79 124.5,-189.69 129.85,-185.18"/>
</g>
<!-- map_wmmask (fixes)&#45;&gt;atropos_wf -->
<g id="edge16" class="edge">
<title>map_wmmask (fixes)&#45;&gt;atropos_wf</title>
<path fill="none" stroke="black" d="M177.8,-215.87C189.19,-197.65 202.98,-168.17 192.58,-144 187.32,-131.78 177.7,-121.05 167.9,-112.51"/>
<polygon fill="black" stroke="black" points="170.04,-109.74 160.08,-106.14 165.62,-115.17 170.04,-109.74"/>
</g>
<!-- outputnode (utility) -->
<g id="node19" class="node">
<title>outputnode (utility)</title>
<ellipse fill="none" stroke="black" cx="136.58" cy="-18" rx="79.09" ry="18"/>
<text text-anchor="middle" x="136.58" y="-14.3" font-family="Times,serif" font-size="14.00">outputnode (utility)</text>
</g>
<!-- atropos_wf&#45;&gt;outputnode (utility) -->
<g id="edge17" class="edge">
<title>atropos_wf&#45;&gt;outputnode (utility)</title>
<path fill="none" stroke="black" d="M136.58,-71.7C136.58,-63.98 136.58,-54.71 136.58,-46.11"/>
<polygon fill="black" stroke="black" points="140.08,-46.1 136.58,-36.1 133.08,-46.1 140.08,-46.1"/>
</g>
<!-- res_target (nibabel) -->
<g id="node12" class="node">
<title>res_target (nibabel)</title>
<ellipse fill="none" stroke="black" cx="430.58" cy="-450" rx="79.09" ry="18"/>
<text text-anchor="middle" x="430.58" y="-446.3" font-family="Times,serif" font-size="14.00">res_target (nibabel)</text>
</g>
<!-- inu_n4 (ants)&#45;&gt;res_target (nibabel) -->
<g id="edge18" class="edge">
<title>inu_n4 (ants)&#45;&gt;res_target (nibabel)</title>
<path fill="none" stroke="black" d="M471.02,-504.41C464.64,-495.99 456.76,-485.58 449.66,-476.2"/>
<polygon fill="black" stroke="black" points="452.24,-473.82 443.42,-467.96 446.66,-478.04 452.24,-473.82"/>
</g>
<!-- lap_target (ants) -->
<g id="node13" class="node">
<title>lap_target (ants)</title>
<ellipse fill="none" stroke="black" cx="633.58" cy="-450" rx="68.49" ry="18"/>
<text text-anchor="middle" x="633.58" y="-446.3" font-family="Times,serif" font-size="14.00">lap_target (ants)</text>
</g>
<!-- inu_n4 (ants)&#45;&gt;lap_target (ants) -->
<g id="edge19" class="edge">
<title>inu_n4 (ants)&#45;&gt;lap_target (ants)</title>
<path fill="none" stroke="black" d="M514.3,-506.67C536.87,-496.13 567.78,-481.71 592.48,-470.18"/>
<polygon fill="black" stroke="black" points="594.03,-473.32 601.61,-465.92 591.07,-466.98 594.03,-473.32"/>
</g>
<!-- mrg_target (utility) -->
<g id="node14" class="node">
<title>mrg_target (utility)</title>
<ellipse fill="none" stroke="black" cx="537.58" cy="-378" rx="79.09" ry="18"/>
<text text-anchor="middle" x="537.58" y="-374.3" font-family="Times,serif" font-size="14.00">mrg_target (utility)</text>
</g>
<!-- inu_n4 (ants)&#45;&gt;mrg_target (utility) -->
<g id="edge20" class="edge">
<title>inu_n4 (ants)&#45;&gt;mrg_target (utility)</title>
<path fill="none" stroke="black" d="M496.99,-504.26C504.37,-494.27 513.12,-481.02 518.58,-468 526.86,-448.24 531.7,-424.44 534.42,-406.42"/>
<polygon fill="black" stroke="black" points="537.92,-406.68 535.82,-396.3 530.98,-405.73 537.92,-406.68"/>
</g>
<!-- thr_brainmask (ants)&#45;&gt;atropos_wf -->
<g id="edge22" class="edge">
<title>thr_brainmask (ants)&#45;&gt;atropos_wf</title>
<path fill="none" stroke="black" d="M283.46,-145.98C252.96,-134.56 211.05,-118.88 179.81,-107.18"/>
<polygon fill="black" stroke="black" points="180.66,-103.76 170.07,-103.54 178.21,-110.32 180.66,-103.76"/>
</g>
<!-- thr_brainmask (ants)&#45;&gt;apply_mask (nibabel) -->
<g id="edge21" class="edge">
<title>thr_brainmask (ants)&#45;&gt;apply_mask (nibabel)</title>
<path fill="none" stroke="black" d="M319.62,-143.7C317.86,-135.98 315.74,-126.71 313.78,-118.11"/>
<polygon fill="black" stroke="black" points="317.13,-117.07 311.49,-108.1 310.3,-118.63 317.13,-117.07"/>
</g>
<!-- res_target (nibabel)&#45;&gt;init_aff (ants) -->
<g id="edge23" class="edge">
<title>res_target (nibabel)&#45;&gt;init_aff (ants)</title>
<path fill="none" stroke="black" d="M401.31,-433.12C382.61,-422.97 358.22,-409.74 338.24,-398.89"/>
<polygon fill="black" stroke="black" points="339.87,-395.79 329.41,-394.1 336.53,-401.95 339.87,-395.79"/>
</g>
<!-- lap_target (ants)&#45;&gt;mrg_target (utility) -->
<g id="edge24" class="edge">
<title>lap_target (ants)&#45;&gt;mrg_target (utility)</title>
<path fill="none" stroke="black" d="M611.31,-432.76C598.56,-423.47 582.37,-411.66 568.41,-401.48"/>
<polygon fill="black" stroke="black" points="570.2,-398.45 560.06,-395.39 566.07,-404.11 570.2,-398.45"/>
</g>
<!-- mrg_target (utility)&#45;&gt;norm (fixes) -->
<g id="edge25" class="edge">
<title>mrg_target (utility)&#45;&gt;norm (fixes)</title>
<path fill="none" stroke="black" d="M497.54,-362.33C466.51,-350.95 423.53,-335.2 391.36,-323.41"/>
<polygon fill="black" stroke="black" points="392.34,-320.04 381.75,-319.89 389.93,-326.62 392.34,-320.04"/>
</g>
<!-- res_tmpl (nibabel) -->
<g id="node15" class="node">
<title>res_tmpl (nibabel)</title>
<ellipse fill="none" stroke="black" cx="257.58" cy="-450" rx="76.09" ry="18"/>
<text text-anchor="middle" x="257.58" y="-446.3" font-family="Times,serif" font-size="14.00">res_tmpl (nibabel)</text>
</g>
<!-- res_tmpl (nibabel)&#45;&gt;init_aff (ants) -->
<g id="edge26" class="edge">
<title>res_tmpl (nibabel)&#45;&gt;init_aff (ants)</title>
<path fill="none" stroke="black" d="M268.23,-432.05C273.42,-423.8 279.77,-413.7 285.53,-404.54"/>
<polygon fill="black" stroke="black" points="288.67,-406.12 291.03,-395.79 282.74,-402.39 288.67,-406.12"/>
</g>
<!-- full_wm (utility) -->
<g id="node16" class="node">
<title>full_wm (utility)</title>
<ellipse fill="none" stroke="black" cx="175.58" cy="-306" rx="70.39" ry="18"/>
<text text-anchor="middle" x="175.58" y="-302.3" font-family="Times,serif" font-size="14.00">full_wm (utility)</text>
</g>
<!-- full_wm (utility)&#45;&gt;map_wmmask (fixes) -->
<g id="edge27" class="edge">
<title>full_wm (utility)&#45;&gt;map_wmmask (fixes)</title>
<path fill="none" stroke="black" d="M173.11,-287.7C172,-279.98 170.68,-270.71 169.45,-262.11"/>
<polygon fill="black" stroke="black" points="172.9,-261.51 168.02,-252.1 165.97,-262.5 172.9,-261.51"/>
</g>
<!-- lap_tmpl (ants) -->
<g id="node17" class="node">
<title>lap_tmpl (ants)</title>
<ellipse fill="none" stroke="black" cx="784.58" cy="-450" rx="64.99" ry="18"/>
<text text-anchor="middle" x="784.58" y="-446.3" font-family="Times,serif" font-size="14.00">lap_tmpl (ants)</text>
</g>
<!-- mrg_tmpl (utility) -->
<g id="node18" class="node">
<title>mrg_tmpl (utility)</title>
<ellipse fill="none" stroke="black" cx="742.58" cy="-378" rx="75.29" ry="18"/>
<text text-anchor="middle" x="742.58" y="-374.3" font-family="Times,serif" font-size="14.00">mrg_tmpl (utility)</text>
</g>
<!-- lap_tmpl (ants)&#45;&gt;mrg_tmpl (utility) -->
<g id="edge28" class="edge">
<title>lap_tmpl (ants)&#45;&gt;mrg_tmpl (utility)</title>
<path fill="none" stroke="black" d="M774.41,-432.05C769.53,-423.92 763.58,-414 758.14,-404.94"/>
<polygon fill="black" stroke="black" points="761.09,-403.05 752.94,-396.28 755.09,-406.65 761.09,-403.05"/>
</g>
<!-- mrg_tmpl (utility)&#45;&gt;norm (fixes) -->
<g id="edge29" class="edge">
<title>mrg_tmpl (utility)&#45;&gt;norm (fixes)</title>
<path fill="none" stroke="black" d="M683.72,-366.6C608.3,-353.26 478.43,-330.31 403.81,-317.12"/>
<polygon fill="black" stroke="black" points="404.11,-313.62 393.65,-315.32 402.89,-320.51 404.11,-313.62"/>
</g>
</g>
</svg>
