<?xml version="1.0" encoding="UTF-8" standalone="no"?>
<!DOCTYPE svg PUBLIC "-//W3C//DTD SVG 1.1//EN"
 "http://www.w3.org/Graphics/SVG/1.1/DTD/svg11.dtd">
<!-- Generated by graphviz version 2.46.1 (20210213.1702)
 -->
<!-- Pages: 1 -->
<svg width="365pt" height="260pt"
 viewBox="0.00 0.00 364.79 260.00" xmlns="http://www.w3.org/2000/svg" xmlns:xlink="http://www.w3.org/1999/xlink">
<g id="graph0" class="graph" transform="scale(1 1) rotate(0) translate(4 256)">
<polygon fill="white" stroke="transparent" points="-4,4 -4,-256 360.79,-256 360.79,4 -4,4"/>
<!-- inputnode (utility) -->
<g id="node1" class="node">
<title>inputnode (utility)</title>
<ellipse fill="none" stroke="black" cx="182.34" cy="-234" rx="75.29" ry="18"/>
<text text-anchor="middle" x="182.34" y="-230.3" font-family="Times,serif" font-size="14.00">inputnode (utility)</text>
</g>
<!-- inu_n4_final (ants) -->
<g id="node2" class="node">
<title>inu_n4_final (ants)</title>
<ellipse fill="none" stroke="black" cx="77.34" cy="-162" rx="77.19" ry="18"/>
<text text-anchor="middle" x="77.34" y="-158.3" font-family="Times,serif" font-size="14.00">inu_n4_final (ants)</text>
</g>
<!-- inputnode (utility)&#45;&gt;inu_n4_final (ants) -->
<g id="edge1" class="edge">
<title>inputnode (utility)&#45;&gt;inu_n4_final (ants)</title>
<path fill="none" stroke="black" d="M158.25,-216.94C143.95,-207.4 125.62,-195.18 110.02,-184.79"/>
<polygon fill="black" stroke="black" points="111.95,-181.86 101.68,-179.23 108.06,-187.69 111.95,-181.86"/>
</g>
<!-- binarize (nibabel) -->
<g id="node3" class="node">
<title>binarize (nibabel)</title>
<ellipse fill="none" stroke="black" cx="283.34" cy="-162" rx="73.39" ry="18"/>
<text text-anchor="middle" x="283.34" y="-158.3" font-family="Times,serif" font-size="14.00">binarize (nibabel)</text>
</g>
<!-- inputnode (utility)&#45;&gt;binarize (nibabel) -->
<g id="edge2" class="edge">
<title>inputnode (utility)&#45;&gt;binarize (nibabel)</title>
<path fill="none" stroke="black" d="M205.77,-216.76C219.41,-207.31 236.79,-195.26 251.64,-184.97"/>
<polygon fill="black" stroke="black" points="253.82,-187.72 260.04,-179.15 249.83,-181.97 253.82,-187.72"/>
</g>
<!-- atropos_wf -->
<g id="node4" class="node">
<title>atropos_wf</title>
<ellipse fill="none" stroke="black" cx="193.34" cy="-90" rx="50.09" ry="18"/>
<text text-anchor="middle" x="193.34" y="-86.3" font-family="Times,serif" font-size="14.00">atropos_wf</text>
</g>
<!-- inputnode (utility)&#45;&gt;atropos_wf -->
<g id="edge3" class="edge">
<title>inputnode (utility)&#45;&gt;atropos_wf</title>
<path fill="none" stroke="black" d="M183.67,-215.87C185.54,-191.67 188.99,-147.21 191.22,-118.39"/>
<polygon fill="black" stroke="black" points="194.73,-118.43 192.01,-108.19 187.75,-117.89 194.73,-118.43"/>
</g>
<!-- inu_n4_final (ants)&#45;&gt;atropos_wf -->
<g id="edge4" class="edge">
<title>inu_n4_final (ants)&#45;&gt;atropos_wf</title>
<path fill="none" stroke="black" d="M103.96,-144.94C120.59,-134.9 142.15,-121.89 159.93,-111.16"/>
<polygon fill="black" stroke="black" points="162.08,-113.95 168.83,-105.79 158.46,-107.96 162.08,-113.95"/>
</g>
<!-- binarize (nibabel)&#45;&gt;atropos_wf -->
<g id="edge6" class="edge">
<title>binarize (nibabel)&#45;&gt;atropos_wf</title>
<path fill="none" stroke="black" d="M262.01,-144.41C249.9,-134.99 234.6,-123.09 221.51,-112.91"/>
<polygon fill="black" stroke="black" points="223.33,-109.89 213.29,-106.51 219.03,-115.41 223.33,-109.89"/>
</g>
<!-- outputnode (utility) -->
<g id="node5" class="node">
<title>outputnode (utility)</title>
<ellipse fill="none" stroke="black" cx="232.34" cy="-18" rx="79.09" ry="18"/>
<text text-anchor="middle" x="232.34" y="-14.3" font-family="Times,serif" font-size="14.00">outputnode (utility)</text>
</g>
<!-- binarize (nibabel)&#45;&gt;outputnode (utility) -->
<g id="edge5" class="edge">
<title>binarize (nibabel)&#45;&gt;outputnode (utility)</title>
<path fill="none" stroke="black" d="M277.53,-143.89C271.4,-125.94 261.38,-96.92 252.34,-72 249.21,-63.36 245.7,-53.97 242.5,-45.52"/>
<polygon fill="black" stroke="black" points="245.76,-44.25 238.94,-36.14 239.22,-46.74 245.76,-44.25"/>
</g>
<!-- atropos_wf&#45;&gt;outputnode (utility) -->
<g id="edge7" class="edge">
<title>atropos_wf&#45;&gt;outputnode (utility)</title>
<path fill="none" stroke="black" d="M202.78,-72.05C207.27,-64.01 212.73,-54.2 217.73,-45.23"/>
<polygon fill="black" stroke="black" points="220.91,-46.71 222.72,-36.28 214.79,-43.31 220.91,-46.71"/>
</g>
</g>
</svg>
