<?xml version="1.0" encoding="UTF-8" standalone="no"?>
<!DOCTYPE svg PUBLIC "-//W3C//DTD SVG 1.1//EN"
 "http://www.w3.org/Graphics/SVG/1.1/DTD/svg11.dtd">
<!-- Generated by graphviz version 2.46.1 (20210213.1702)
 -->
<!-- Pages: 1 -->
<svg width="520pt" height="548pt"
 viewBox="0.00 0.00 519.55 548.00" xmlns="http://www.w3.org/2000/svg" xmlns:xlink="http://www.w3.org/1999/xlink">
<g id="graph0" class="graph" transform="scale(1 1) rotate(0) translate(4 544)">
<polygon fill="white" stroke="transparent" points="-4,4 -4,-544 515.55,-544 515.55,4 -4,4"/>
<!-- inputnode (utility) -->
<g id="node1" class="node">
<title>inputnode (utility)</title>
<ellipse fill="none" stroke="black" cx="268.24" cy="-522" rx="75.29" ry="18"/>
<text text-anchor="middle" x="268.24" y="-518.3" font-family="Times,serif" font-size="14.00">inputnode (utility)</text>
</g>
<!-- fssource (io) -->
<g id="node2" class="node">
<title>fssource (io)</title>
<ellipse fill="none" stroke="black" cx="268.24" cy="-450" rx="55.49" ry="18"/>
<text text-anchor="middle" x="268.24" y="-446.3" font-family="Times,serif" font-size="14.00">fssource (io)</text>
</g>
<!-- inputnode (utility)&#45;&gt;fssource (io) -->
<g id="edge1" class="edge">
<title>inputnode (utility)&#45;&gt;fssource (io)</title>
<path fill="none" stroke="black" d="M268.24,-503.7C268.24,-495.98 268.24,-486.71 268.24,-478.11"/>
<polygon fill="black" stroke="black" points="271.74,-478.1 268.24,-468.1 264.74,-478.1 271.74,-478.1"/>
</g>
<!-- save_midthickness (io) -->
<g id="node3" class="node">
<title>save_midthickness (io)</title>
<ellipse fill="none" stroke="black" cx="396.24" cy="-306" rx="92.88" ry="18"/>
<text text-anchor="middle" x="396.24" y="-302.3" font-family="Times,serif" font-size="14.00">save_midthickness (io)</text>
</g>
<!-- inputnode (utility)&#45;&gt;save_midthickness (io) -->
<g id="edge2" class="edge">
<title>inputnode (utility)&#45;&gt;save_midthickness (io)</title>
<path fill="none" stroke="black" d="M322.8,-509.48C379.65,-494.25 465.84,-461.33 505.24,-396 513.5,-382.3 513.73,-373.56 505.24,-360 495.16,-343.9 478.64,-332.56 461.46,-324.63"/>
<polygon fill="black" stroke="black" points="462.47,-321.25 451.89,-320.57 459.73,-327.7 462.47,-321.25"/>
</g>
<!-- fsnative_2_t1_xfm (freesurfer) -->
<g id="node4" class="node">
<title>fsnative_2_t1_xfm (freesurfer)</title>
<ellipse fill="none" stroke="black" cx="120.24" cy="-306" rx="120.48" ry="18"/>
<text text-anchor="middle" x="120.24" y="-302.3" font-family="Times,serif" font-size="14.00">fsnative_2_t1_xfm (freesurfer)</text>
</g>
<!-- inputnode (utility)&#45;&gt;fsnative_2_t1_xfm (freesurfer) -->
<g id="edge3" class="edge">
<title>inputnode (utility)&#45;&gt;fsnative_2_t1_xfm (freesurfer)</title>
<path fill="none" stroke="black" d="M244.33,-504.81C231.35,-495.19 215.67,-482.13 204.24,-468 170.1,-425.79 143.89,-367.52 130.38,-333.9"/>
<polygon fill="black" stroke="black" points="133.52,-332.32 126.6,-324.3 127.01,-334.89 133.52,-332.32"/>
</g>
<!-- fssource (io)&#45;&gt;fsnative_2_t1_xfm (freesurfer) -->
<g id="edge4" class="edge">
<title>fssource (io)&#45;&gt;fsnative_2_t1_xfm (freesurfer)</title>
<path fill="none" stroke="black" d="M251.26,-432.71C225.33,-407.83 175.71,-360.22 145.53,-331.26"/>
<polygon fill="black" stroke="black" points="147.57,-328.38 137.94,-323.98 142.73,-333.43 147.57,-328.38"/>
</g>
<!-- midthickness (freesurfer) -->
<g id="node5" class="node">
<title>midthickness (freesurfer)</title>
<ellipse fill="none" stroke="black" cx="396.24" cy="-378" rx="100.18" ry="18"/>
<text text-anchor="middle" x="396.24" y="-374.3" font-family="Times,serif" font-size="14.00">midthickness (freesurfer)</text>
</g>
<!-- fssource (io)&#45;&gt;midthickness (freesurfer) -->
<g id="edge5" class="edge">
<title>fssource (io)&#45;&gt;midthickness (freesurfer)</title>
<path fill="none" stroke="black" d="M295.38,-434.15C313.46,-424.27 337.48,-411.13 357.55,-400.16"/>
<polygon fill="black" stroke="black" points="359.36,-403.16 366.45,-395.29 356,-397.02 359.36,-403.16"/>
</g>
<!-- surface_list (utility) -->
<g id="node6" class="node">
<title>surface_list (utility)</title>
<ellipse fill="none" stroke="black" cx="277.24" cy="-234" rx="80.69" ry="18"/>
<text text-anchor="middle" x="277.24" y="-230.3" font-family="Times,serif" font-size="14.00">surface_list (utility)</text>
</g>
<!-- fssource (io)&#45;&gt;surface_list (utility) -->
<g id="edge6" class="edge">
<title>fssource (io)&#45;&gt;surface_list (utility)</title>
<path fill="none" stroke="black" d="M268.96,-431.85C270.52,-394.83 274.2,-307.18 276.09,-262.39"/>
<polygon fill="black" stroke="black" points="279.59,-262.37 276.51,-252.23 272.6,-262.08 279.59,-262.37"/>
</g>
<!-- save_midthickness (io)&#45;&gt;surface_list (utility) -->
<g id="edge7" class="edge">
<title>save_midthickness (io)&#45;&gt;surface_list (utility)</title>
<path fill="none" stroke="black" d="M368.64,-288.76C352.27,-279.13 331.32,-266.81 313.61,-256.4"/>
<polygon fill="black" stroke="black" points="315.08,-253.2 304.69,-251.15 311.53,-259.23 315.08,-253.2"/>
</g>
<!-- fix_surfs (surf) -->
<g id="node7" class="node">
<title>fix_surfs (surf)</title>
<ellipse fill="none" stroke="black" cx="194.24" cy="-90" rx="63.89" ry="18"/>
<text text-anchor="middle" x="194.24" y="-86.3" font-family="Times,serif" font-size="14.00">fix_surfs (surf)</text>
</g>
<!-- fsnative_2_t1_xfm (freesurfer)&#45;&gt;fix_surfs (surf) -->
<g id="edge8" class="edge">
<title>fsnative_2_t1_xfm (freesurfer)&#45;&gt;fix_surfs (surf)</title>
<path fill="none" stroke="black" d="M126.17,-287.85C139.06,-250.58 169.69,-162 185.08,-117.49"/>
<polygon fill="black" stroke="black" points="188.42,-118.53 188.38,-107.94 181.81,-116.24 188.42,-118.53"/>
</g>
<!-- outputnode (utility) -->
<g id="node8" class="node">
<title>outputnode (utility)</title>
<ellipse fill="none" stroke="black" cx="194.24" cy="-18" rx="79.09" ry="18"/>
<text text-anchor="middle" x="194.24" y="-14.3" font-family="Times,serif" font-size="14.00">outputnode (utility)</text>
</g>
<!-- fsnative_2_t1_xfm (freesurfer)&#45;&gt;outputnode (utility) -->
<g id="edge9" class="edge">
<title>fsnative_2_t1_xfm (freesurfer)&#45;&gt;outputnode (utility)</title>
<path fill="none" stroke="black" d="M115.38,-287.98C104.9,-247.75 83.97,-144.72 121.24,-72 127.96,-58.88 139.62,-48.24 151.66,-40.03"/>
<polygon fill="black" stroke="black" points="153.85,-42.79 160.44,-34.48 150.11,-36.87 153.85,-42.79"/>
</g>
<!-- midthickness (freesurfer)&#45;&gt;save_midthickness (io) -->
<g id="edge10" class="edge">
<title>midthickness (freesurfer)&#45;&gt;save_midthickness (io)</title>
<path fill="none" stroke="black" d="M396.24,-359.7C396.24,-351.98 396.24,-342.71 396.24,-334.11"/>
<polygon fill="black" stroke="black" points="399.74,-334.1 396.24,-324.1 392.74,-334.1 399.74,-334.1"/>
</g>
<!-- fs_2_gii (freesurfer) -->
<g id="node9" class="node">
<title>fs_2_gii (freesurfer)</title>
<ellipse fill="none" stroke="black" cx="277.24" cy="-162" rx="81.79" ry="18"/>
<text text-anchor="middle" x="277.24" y="-158.3" font-family="Times,serif" font-size="14.00">fs_2_gii (freesurfer)</text>
</g>
<!-- surface_list (utility)&#45;&gt;fs_2_gii (freesurfer) -->
<g id="edge11" class="edge">
<title>surface_list (utility)&#45;&gt;fs_2_gii (freesurfer)</title>
<path fill="none" stroke="black" d="M277.24,-215.7C277.24,-207.98 277.24,-198.71 277.24,-190.11"/>
<polygon fill="black" stroke="black" points="280.74,-190.1 277.24,-180.1 273.74,-190.1 280.74,-190.1"/>
</g>
<!-- fix_surfs (surf)&#45;&gt;outputnode (utility) -->
<g id="edge12" class="edge">
<title>fix_surfs (surf)&#45;&gt;outputnode (utility)</title>
<path fill="none" stroke="black" d="M194.24,-71.7C194.24,-63.98 194.24,-54.71 194.24,-46.11"/>
<polygon fill="black" stroke="black" points="197.74,-46.1 194.24,-36.1 190.74,-46.1 197.74,-46.1"/>
</g>
<!-- fs_2_gii (freesurfer)&#45;&gt;fix_surfs (surf) -->
<g id="edge13" class="edge">
<title>fs_2_gii (freesurfer)&#45;&gt;fix_surfs (surf)</title>
<path fill="none" stroke="black" d="M257.57,-144.41C246.74,-135.28 233.14,-123.81 221.32,-113.84"/>
<polygon fill="black" stroke="black" points="223.38,-111 213.48,-107.23 218.87,-116.35 223.38,-111"/>
</g>
<!-- fs_2_gii (freesurfer)&#45;&gt;outputnode (utility) -->
<g id="edge14" class="edge">
<title>fs_2_gii (freesurfer)&#45;&gt;outputnode (utility)</title>
<path fill="none" stroke="black" d="M279.22,-144C280.58,-125.1 280.23,-94.3 267.24,-72 259.62,-58.91 247.34,-48.15 235.01,-39.83"/>
<polygon fill="black" stroke="black" points="236.85,-36.85 226.52,-34.45 233.1,-42.76 236.85,-36.85"/>
</g>
</g>
</svg>
