<?xml version="1.0" encoding="UTF-8" standalone="no"?>
<!DOCTYPE svg PUBLIC "-//W3C//DTD SVG 1.1//EN"
 "http://www.w3.org/Graphics/SVG/1.1/DTD/svg11.dtd">
<!-- Generated by graphviz version 2.46.1 (20210213.1702)
 -->
<!-- Pages: 1 -->
<svg width="573pt" height="332pt"
 viewBox="0.00 0.00 573.06 332.00" xmlns="http://www.w3.org/2000/svg" xmlns:xlink="http://www.w3.org/1999/xlink">
<g id="graph0" class="graph" transform="scale(1 1) rotate(0) translate(4 328)">
<polygon fill="white" stroke="transparent" points="-4,4 -4,-328 569.06,-328 569.06,4 -4,4"/>
<!-- inputnode (utility) -->
<g id="node1" class="node">
<title>inputnode (utility)</title>
<ellipse fill="none" stroke="black" cx="264.22" cy="-306" rx="75.29" ry="18"/>
<text text-anchor="middle" x="264.22" y="-302.3" font-family="Times,serif" font-size="14.00">inputnode (utility)</text>
</g>
<!-- val_bold (header) -->
<g id="node2" class="node">
<title>val_bold (header)</title>
<ellipse fill="none" stroke="black" cx="110.22" cy="-234" rx="73.39" ry="18"/>
<text text-anchor="middle" x="110.22" y="-230.3" font-family="Times,serif" font-size="14.00">val_bold (header)</text>
</g>
<!-- inputnode (utility)&#45;&gt;val_bold (header) -->
<g id="edge1" class="edge">
<title>inputnode (utility)&#45;&gt;val_bold (header)</title>
<path fill="none" stroke="black" d="M230.8,-289.81C207.89,-279.4 177.32,-265.5 152.69,-254.31"/>
<polygon fill="black" stroke="black" points="154.12,-251.11 143.57,-250.16 151.22,-257.48 154.12,-251.11"/>
</g>
<!-- get_dummy (bold) -->
<g id="node3" class="node">
<title>get_dummy (bold)</title>
<ellipse fill="none" stroke="black" cx="317.22" cy="-234" rx="77.19" ry="18"/>
<text text-anchor="middle" x="317.22" y="-230.3" font-family="Times,serif" font-size="14.00">get_dummy (bold)</text>
</g>
<!-- inputnode (utility)&#45;&gt;get_dummy (bold) -->
<g id="edge2" class="edge">
<title>inputnode (utility)&#45;&gt;get_dummy (bold)</title>
<path fill="none" stroke="black" d="M277.05,-288.05C283.43,-279.63 291.26,-269.28 298.31,-259.97"/>
<polygon fill="black" stroke="black" points="301.26,-261.87 304.5,-251.79 295.68,-257.65 301.26,-261.87"/>
</g>
<!-- enhance_and_skullstrip_bold_wf -->
<g id="node4" class="node">
<title>enhance_and_skullstrip_bold_wf</title>
<ellipse fill="none" stroke="black" cx="162.22" cy="-90" rx="127.28" ry="18"/>
<text text-anchor="middle" x="162.22" y="-86.3" font-family="Times,serif" font-size="14.00">enhance_and_skullstrip_bold_wf</text>
</g>
<!-- inputnode (utility)&#45;&gt;enhance_and_skullstrip_bold_wf -->
<g id="edge3" class="edge">
<title>inputnode (utility)&#45;&gt;enhance_and_skullstrip_bold_wf</title>
<path fill="none" stroke="black" d="M252.22,-287.88C245.47,-277.76 237.22,-264.51 231.22,-252 209.19,-206.13 214.6,-190.17 193.22,-144 189,-134.91 183.71,-125.35 178.69,-116.89"/>
<polygon fill="black" stroke="black" points="181.6,-114.94 173.41,-108.21 175.62,-118.58 181.6,-114.94"/>
</g>
<!-- calc_dummy_scans (utility) -->
<g id="node5" class="node">
<title>calc_dummy_scans (utility)</title>
<ellipse fill="none" stroke="black" cx="455.22" cy="-162" rx="109.68" ry="18"/>
<text text-anchor="middle" x="455.22" y="-158.3" font-family="Times,serif" font-size="14.00">calc_dummy_scans (utility)</text>
</g>
<!-- inputnode (utility)&#45;&gt;calc_dummy_scans (utility) -->
<g id="edge4" class="edge">
<title>inputnode (utility)&#45;&gt;calc_dummy_scans (utility)</title>
<path fill="none" stroke="black" d="M318.5,-293.48C346.22,-285.47 379.08,-272.46 403.22,-252 422.95,-235.27 436.98,-209.05 445.45,-189.4"/>
<polygon fill="black" stroke="black" points="448.72,-190.65 449.27,-180.07 442.24,-188 448.72,-190.65"/>
</g>
<!-- outputnode (utility) -->
<g id="node6" class="node">
<title>outputnode (utility)</title>
<ellipse fill="none" stroke="black" cx="162.22" cy="-18" rx="79.09" ry="18"/>
<text text-anchor="middle" x="162.22" y="-14.3" font-family="Times,serif" font-size="14.00">outputnode (utility)</text>
</g>
<!-- val_bold (header)&#45;&gt;outputnode (utility) -->
<g id="edge5" class="edge">
<title>val_bold (header)&#45;&gt;outputnode (utility)</title>
<path fill="none" stroke="black" d="M73.46,-218.14C56.72,-209.49 38.22,-196.91 27.22,-180 0.89,-139.56 -11.48,-111.51 16.22,-72 31.72,-49.87 57.46,-36.95 83.04,-29.41"/>
<polygon fill="black" stroke="black" points="84.07,-32.76 92.81,-26.78 82.25,-26 84.07,-32.76"/>
</g>
<!-- gen_avg (images) -->
<g id="node7" class="node">
<title>gen_avg (images)</title>
<ellipse fill="none" stroke="black" cx="110.22" cy="-162" rx="74.19" ry="18"/>
<text text-anchor="middle" x="110.22" y="-158.3" font-family="Times,serif" font-size="14.00">gen_avg (images)</text>
</g>
<!-- val_bold (header)&#45;&gt;gen_avg (images) -->
<g id="edge6" class="edge">
<title>val_bold (header)&#45;&gt;gen_avg (images)</title>
<path fill="none" stroke="black" d="M110.22,-215.7C110.22,-207.98 110.22,-198.71 110.22,-190.11"/>
<polygon fill="black" stroke="black" points="113.72,-190.1 110.22,-180.1 106.72,-190.1 113.72,-190.1"/>
</g>
<!-- get_dummy (bold)&#45;&gt;calc_dummy_scans (utility) -->
<g id="edge7" class="edge">
<title>get_dummy (bold)&#45;&gt;calc_dummy_scans (utility)</title>
<path fill="none" stroke="black" d="M347.84,-217.46C367.35,-207.57 392.85,-194.63 414.11,-183.85"/>
<polygon fill="black" stroke="black" points="415.9,-186.87 423.24,-179.22 412.73,-180.62 415.9,-186.87"/>
</g>
<!-- get_dummy (bold)&#45;&gt;outputnode (utility) -->
<g id="edge8" class="edge">
<title>get_dummy (bold)&#45;&gt;outputnode (utility)</title>
<path fill="none" stroke="black" d="M320.45,-215.86C325.43,-183.94 331.28,-114.75 298.22,-72 282.82,-52.09 258.9,-39.65 235.39,-31.89"/>
<polygon fill="black" stroke="black" points="236.3,-28.51 225.71,-28.93 234.26,-35.2 236.3,-28.51"/>
</g>
<!-- get_dummy (bold)&#45;&gt;gen_avg (images) -->
<g id="edge9" class="edge">
<title>get_dummy (bold)&#45;&gt;gen_avg (images)</title>
<path fill="none" stroke="black" d="M275.33,-218.83C242.39,-207.7 196.37,-192.13 161.28,-180.27"/>
<polygon fill="black" stroke="black" points="162.28,-176.91 151.69,-177.02 160.04,-183.54 162.28,-176.91"/>
</g>
<!-- enhance_and_skullstrip_bold_wf&#45;&gt;outputnode (utility) -->
<g id="edge10" class="edge">
<title>enhance_and_skullstrip_bold_wf&#45;&gt;outputnode (utility)</title>
<path fill="none" stroke="black" d="M162.22,-71.7C162.22,-63.98 162.22,-54.71 162.22,-46.11"/>
<polygon fill="black" stroke="black" points="165.72,-46.1 162.22,-36.1 158.72,-46.1 165.72,-46.1"/>
</g>
<!-- calc_dummy_scans (utility)&#45;&gt;outputnode (utility) -->
<g id="edge11" class="edge">
<title>calc_dummy_scans (utility)&#45;&gt;outputnode (utility)</title>
<path fill="none" stroke="black" d="M435.87,-144.08C412.49,-124.39 371.28,-92.01 331.22,-72 298.06,-55.44 258.66,-42.72 226.25,-33.9"/>
<polygon fill="black" stroke="black" points="226.99,-30.48 216.43,-31.29 225.19,-37.25 226.99,-30.48"/>
</g>
<!-- gen_avg (images)&#45;&gt;enhance_and_skullstrip_bold_wf -->
<g id="edge12" class="edge">
<title>gen_avg (images)&#45;&gt;enhance_and_skullstrip_bold_wf</title>
<path fill="none" stroke="black" d="M122.8,-144.05C128.97,-135.75 136.52,-125.58 143.36,-116.38"/>
<polygon fill="black" stroke="black" points="146.23,-118.39 149.38,-108.28 140.61,-114.22 146.23,-118.39"/>
</g>
<!-- gen_avg (images)&#45;&gt;outputnode (utility) -->
<g id="edge13" class="edge">
<title>gen_avg (images)&#45;&gt;outputnode (utility)</title>
<path fill="none" stroke="black" d="M70.99,-146.5C54.03,-138.04 35.87,-125.52 26.22,-108 18.49,-93.99 17.19,-85.21 26.22,-72 40.29,-51.41 63.65,-38.81 87.07,-31.11"/>
<polygon fill="black" stroke="black" points="88.17,-34.44 96.73,-28.2 86.15,-27.74 88.17,-34.44"/>
</g>
</g>
</svg>
