<?xml version="1.0" encoding="UTF-8" standalone="no"?>
<!DOCTYPE svg PUBLIC "-//W3C//DTD SVG 1.1//EN"
 "http://www.w3.org/Graphics/SVG/1.1/DTD/svg11.dtd">
<!-- Generated by graphviz version 2.46.1 (20210213.1702)
 -->
<!-- Pages: 1 -->
<svg width="341pt" height="620pt"
 viewBox="0.00 0.00 341.14 620.00" xmlns="http://www.w3.org/2000/svg" xmlns:xlink="http://www.w3.org/1999/xlink">
<g id="graph0" class="graph" transform="scale(1 1) rotate(0) translate(4 616)">
<polygon fill="white" stroke="transparent" points="-4,4 -4,-616 337.14,-616 337.14,4 -4,4"/>
<!-- inputnode (utility) -->
<g id="node1" class="node">
<title>inputnode (utility)</title>
<ellipse fill="none" stroke="black" cx="193.29" cy="-594" rx="75.29" ry="18"/>
<text text-anchor="middle" x="193.29" y="-590.3" font-family="Times,serif" font-size="14.00">inputnode (utility)</text>
</g>
<!-- validate_nii (header) -->
<g id="node2" class="node">
<title>validate_nii (header)</title>
<ellipse fill="none" stroke="black" cx="249.29" cy="-522" rx="83.69" ry="18"/>
<text text-anchor="middle" x="249.29" y="-518.3" font-family="Times,serif" font-size="14.00">validate_nii (header)</text>
</g>
<!-- inputnode (utility)&#45;&gt;validate_nii (header) -->
<g id="edge1" class="edge">
<title>inputnode (utility)&#45;&gt;validate_nii (header)</title>
<path fill="none" stroke="black" d="M206.85,-576.05C213.66,-567.54 222.04,-557.07 229.55,-547.68"/>
<polygon fill="black" stroke="black" points="232.35,-549.78 235.86,-539.79 226.88,-545.41 232.35,-549.78"/>
</g>
<!-- per_run_avgs (images) -->
<g id="node3" class="node">
<title>per_run_avgs (images)</title>
<ellipse fill="none" stroke="black" cx="137.29" cy="-450" rx="92.08" ry="18"/>
<text text-anchor="middle" x="137.29" y="-446.3" font-family="Times,serif" font-size="14.00">per_run_avgs (images)</text>
</g>
<!-- inputnode (utility)&#45;&gt;per_run_avgs (images) -->
<g id="edge2" class="edge">
<title>inputnode (utility)&#45;&gt;per_run_avgs (images)</title>
<path fill="none" stroke="black" d="M178.72,-575.91C170.98,-566.01 161.93,-552.97 156.29,-540 147.7,-520.23 142.87,-496.25 140.23,-478.16"/>
<polygon fill="black" stroke="black" points="143.67,-477.47 138.89,-468.01 136.73,-478.39 143.67,-477.47"/>
</g>
<!-- validate_nii (header)&#45;&gt;per_run_avgs (images) -->
<g id="edge3" class="edge">
<title>validate_nii (header)&#45;&gt;per_run_avgs (images)</title>
<path fill="none" stroke="black" d="M223.32,-504.76C208.16,-495.29 188.83,-483.21 172.34,-472.91"/>
<polygon fill="black" stroke="black" points="173.85,-469.72 163.52,-467.39 170.14,-475.66 173.85,-469.72"/>
</g>
<!-- outputnode (utility) -->
<g id="node4" class="node">
<title>outputnode (utility)</title>
<ellipse fill="none" stroke="black" cx="79.29" cy="-18" rx="79.09" ry="18"/>
<text text-anchor="middle" x="79.29" y="-14.3" font-family="Times,serif" font-size="14.00">outputnode (utility)</text>
</g>
<!-- validate_nii (header)&#45;&gt;outputnode (utility) -->
<g id="edge4" class="edge">
<title>validate_nii (header)&#45;&gt;outputnode (utility)</title>
<path fill="none" stroke="black" d="M259.24,-503.71C273.3,-477.58 297.29,-426.1 297.29,-379 297.29,-379 297.29,-379 297.29,-161 297.29,-120.55 306.17,-101.31 278.29,-72 260.95,-53.76 202.48,-39.55 153.38,-30.46"/>
<polygon fill="black" stroke="black" points="153.84,-26.99 143.38,-28.65 152.6,-33.88 153.84,-26.99"/>
</g>
<!-- per_run_avgs (images)&#45;&gt;outputnode (utility) -->
<g id="edge6" class="edge">
<title>per_run_avgs (images)&#45;&gt;outputnode (utility)</title>
<path fill="none" stroke="black" d="M101.56,-433.24C84.18,-424.24 63.93,-411.62 49.29,-396 18.85,-363.51 3.29,-351.53 3.29,-307 3.29,-307 3.29,-307 3.29,-161 3.29,-115.39 34.15,-70.25 56.54,-43.5"/>
<polygon fill="black" stroke="black" points="59.29,-45.67 63.18,-35.81 53.99,-41.09 59.29,-45.67"/>
</g>
<!-- clip_avgs (nibabel) -->
<g id="node5" class="node">
<title>clip_avgs (nibabel)</title>
<ellipse fill="none" stroke="black" cx="137.29" cy="-378" rx="78.79" ry="18"/>
<text text-anchor="middle" x="137.29" y="-374.3" font-family="Times,serif" font-size="14.00">clip_avgs (nibabel)</text>
</g>
<!-- per_run_avgs (images)&#45;&gt;clip_avgs (nibabel) -->
<g id="edge5" class="edge">
<title>per_run_avgs (images)&#45;&gt;clip_avgs (nibabel)</title>
<path fill="none" stroke="black" d="M137.29,-431.7C137.29,-423.98 137.29,-414.71 137.29,-406.11"/>
<polygon fill="black" stroke="black" points="140.79,-406.1 137.29,-396.1 133.79,-406.1 140.79,-406.1"/>
</g>
<!-- n4_avgs (ants) -->
<g id="node6" class="node">
<title>n4_avgs (ants)</title>
<ellipse fill="none" stroke="black" cx="137.29" cy="-306" rx="62.29" ry="18"/>
<text text-anchor="middle" x="137.29" y="-302.3" font-family="Times,serif" font-size="14.00">n4_avgs (ants)</text>
</g>
<!-- clip_avgs (nibabel)&#45;&gt;n4_avgs (ants) -->
<g id="edge7" class="edge">
<title>clip_avgs (nibabel)&#45;&gt;n4_avgs (ants)</title>
<path fill="none" stroke="black" d="M137.29,-359.7C137.29,-351.98 137.29,-342.71 137.29,-334.11"/>
<polygon fill="black" stroke="black" points="140.79,-334.1 137.29,-324.1 133.79,-334.1 140.79,-334.1"/>
</g>
<!-- n4_avgs (ants)&#45;&gt;outputnode (utility) -->
<g id="edge9" class="edge">
<title>n4_avgs (ants)&#45;&gt;outputnode (utility)</title>
<path fill="none" stroke="black" d="M103.26,-290.83C87.13,-282.17 69.43,-269.38 60.29,-252 24.83,-184.54 51.62,-90.67 68.41,-45.44"/>
<polygon fill="black" stroke="black" points="71.7,-46.63 72.02,-36.04 65.17,-44.12 71.7,-46.63"/>
</g>
<!-- clip_bg_noise (nibabel) -->
<g id="node7" class="node">
<title>clip_bg_noise (nibabel)</title>
<ellipse fill="none" stroke="black" cx="163.29" cy="-234" rx="94.48" ry="18"/>
<text text-anchor="middle" x="163.29" y="-230.3" font-family="Times,serif" font-size="14.00">clip_bg_noise (nibabel)</text>
</g>
<!-- n4_avgs (ants)&#45;&gt;clip_bg_noise (nibabel) -->
<g id="edge8" class="edge">
<title>n4_avgs (ants)&#45;&gt;clip_bg_noise (nibabel)</title>
<path fill="none" stroke="black" d="M143.59,-288.05C146.51,-280.18 150.06,-270.62 153.34,-261.79"/>
<polygon fill="black" stroke="black" points="156.68,-262.87 156.88,-252.28 150.11,-260.43 156.68,-262.87"/>
</g>
<!-- epi_merge (freesurfer) -->
<g id="node8" class="node">
<title>epi_merge (freesurfer)</title>
<ellipse fill="none" stroke="black" cx="163.29" cy="-162" rx="90.98" ry="18"/>
<text text-anchor="middle" x="163.29" y="-158.3" font-family="Times,serif" font-size="14.00">epi_merge (freesurfer)</text>
</g>
<!-- clip_bg_noise (nibabel)&#45;&gt;epi_merge (freesurfer) -->
<g id="edge10" class="edge">
<title>clip_bg_noise (nibabel)&#45;&gt;epi_merge (freesurfer)</title>
<path fill="none" stroke="black" d="M163.29,-215.7C163.29,-207.98 163.29,-198.71 163.29,-190.11"/>
<polygon fill="black" stroke="black" points="166.79,-190.1 163.29,-180.1 159.79,-190.1 166.79,-190.1"/>
</g>
<!-- epi_merge (freesurfer)&#45;&gt;outputnode (utility) -->
<g id="edge12" class="edge">
<title>epi_merge (freesurfer)&#45;&gt;outputnode (utility)</title>
<path fill="none" stroke="black" d="M135.46,-144.64C122.26,-135.49 107.4,-122.91 98.29,-108 86.93,-89.4 82.3,-65.01 80.44,-46.47"/>
<polygon fill="black" stroke="black" points="83.91,-46 79.64,-36.31 76.93,-46.55 83.91,-46"/>
</g>
<!-- post_merge (utility) -->
<g id="node9" class="node">
<title>post_merge (utility)</title>
<ellipse fill="none" stroke="black" cx="188.29" cy="-90" rx="81.49" ry="18"/>
<text text-anchor="middle" x="188.29" y="-86.3" font-family="Times,serif" font-size="14.00">post_merge (utility)</text>
</g>
<!-- epi_merge (freesurfer)&#45;&gt;post_merge (utility) -->
<g id="edge11" class="edge">
<title>epi_merge (freesurfer)&#45;&gt;post_merge (utility)</title>
<path fill="none" stroke="black" d="M169.47,-143.7C172.29,-135.81 175.68,-126.3 178.81,-117.55"/>
<polygon fill="black" stroke="black" points="182.12,-118.7 182.18,-108.1 175.52,-116.34 182.12,-118.7"/>
</g>
<!-- post_merge (utility)&#45;&gt;outputnode (utility) -->
<g id="edge13" class="edge">
<title>post_merge (utility)&#45;&gt;outputnode (utility)</title>
<path fill="none" stroke="black" d="M163.01,-72.76C148.15,-63.22 129.18,-51.04 113.06,-40.68"/>
<polygon fill="black" stroke="black" points="114.74,-37.61 104.44,-35.15 110.96,-43.5 114.74,-37.61"/>
</g>
</g>
</svg>
