<?xml version="1.0" encoding="UTF-8" standalone="no"?>
<!DOCTYPE svg PUBLIC "-//W3C//DTD SVG 1.1//EN"
 "http://www.w3.org/Graphics/SVG/1.1/DTD/svg11.dtd">
<!-- Generated by graphviz version 2.46.1 (20210213.1702)
 -->
<!-- Pages: 1 -->
<svg width="738pt" height="1844pt"
 viewBox="0.00 0.00 737.77 1844.00" xmlns="http://www.w3.org/2000/svg" xmlns:xlink="http://www.w3.org/1999/xlink">
<g id="graph0" class="graph" transform="scale(1 1) rotate(0) translate(4 1840)">
<polygon fill="white" stroke="transparent" points="-4,4 -4,-1840 733.77,-1840 733.77,4 -4,4"/>
<!-- inputnode (utility) -->
<g id="node1" class="node">
<title>inputnode (utility)</title>
<ellipse fill="none" stroke="black" cx="265" cy="-1818" rx="75.29" ry="18"/>
<text text-anchor="middle" x="265" y="-1814.3" font-family="Times,serif" font-size="14.00">inputnode (utility)</text>
</g>
<!-- dil_brainmask (ants) -->
<g id="node2" class="node">
<title>dil_brainmask (ants)</title>
<ellipse fill="none" stroke="black" cx="265" cy="-1746" rx="83.69" ry="18"/>
<text text-anchor="middle" x="265" y="-1742.3" font-family="Times,serif" font-size="14.00">dil_brainmask (ants)</text>
</g>
<!-- inputnode (utility)&#45;&gt;dil_brainmask (ants) -->
<g id="edge1" class="edge">
<title>inputnode (utility)&#45;&gt;dil_brainmask (ants)</title>
<path fill="none" stroke="black" d="M265,-1799.7C265,-1791.98 265,-1782.71 265,-1774.11"/>
<polygon fill="black" stroke="black" points="268.5,-1774.1 265,-1764.1 261.5,-1774.1 268.5,-1774.1"/>
</g>
<!-- copy_xform (header) -->
<g id="node3" class="node">
<title>copy_xform (header)</title>
<ellipse fill="none" stroke="black" cx="190" cy="-162" rx="85.59" ry="18"/>
<text text-anchor="middle" x="190" y="-158.3" font-family="Times,serif" font-size="14.00">copy_xform (header)</text>
</g>
<!-- inputnode (utility)&#45;&gt;copy_xform (header) -->
<g id="edge2" class="edge">
<title>inputnode (utility)&#45;&gt;copy_xform (header)</title>
<path fill="none" stroke="black" d="M197.1,-1810C118.58,-1797.73 0,-1764.39 0,-1675 0,-1675 0,-1675 0,-305 0,-258.73 18.57,-245.75 54,-216 74.21,-199.03 100.49,-187.09 124.55,-178.91"/>
<polygon fill="black" stroke="black" points="125.91,-182.14 134.35,-175.73 123.75,-175.48 125.91,-182.14"/>
</g>
<!-- copy_xform_wm (header) -->
<g id="node4" class="node">
<title>copy_xform_wm (header)</title>
<ellipse fill="none" stroke="black" cx="206" cy="-1458" rx="103.98" ry="18"/>
<text text-anchor="middle" x="206" y="-1454.3" font-family="Times,serif" font-size="14.00">copy_xform_wm (header)</text>
</g>
<!-- inputnode (utility)&#45;&gt;copy_xform_wm (header) -->
<g id="edge3" class="edge">
<title>inputnode (utility)&#45;&gt;copy_xform_wm (header)</title>
<path fill="none" stroke="black" d="M224.43,-1802.77C205.82,-1794.27 185.04,-1781.63 172,-1764 147.89,-1731.41 152,-1715.54 152,-1675 152,-1675 152,-1675 152,-1601 152,-1560.55 155.36,-1549.3 171,-1512 174.99,-1502.49 180.73,-1492.86 186.42,-1484.46"/>
<polygon fill="black" stroke="black" points="189.33,-1486.4 192.25,-1476.21 183.62,-1482.36 189.33,-1486.4"/>
</g>
<!-- 03_pad_mask (ants) -->
<g id="node5" class="node">
<title>03_pad_mask (ants)</title>
<ellipse fill="none" stroke="black" cx="568" cy="-1674" rx="82.59" ry="18"/>
<text text-anchor="middle" x="568" y="-1670.3" font-family="Times,serif" font-size="14.00">03_pad_mask (ants)</text>
</g>
<!-- inputnode (utility)&#45;&gt;03_pad_mask (ants) -->
<g id="edge4" class="edge">
<title>inputnode (utility)&#45;&gt;03_pad_mask (ants)</title>
<path fill="none" stroke="black" d="M302.26,-1802.28C327.74,-1792.02 362.16,-1777.75 392,-1764 439.82,-1741.97 493.68,-1714.3 529.09,-1695.71"/>
<polygon fill="black" stroke="black" points="530.9,-1698.71 538.12,-1690.95 527.64,-1692.51 530.9,-1698.71"/>
</g>
<!-- 01_atropos (ants) -->
<g id="node6" class="node">
<title>01_atropos (ants)</title>
<ellipse fill="none" stroke="black" cx="322" cy="-1602" rx="72.29" ry="18"/>
<text text-anchor="middle" x="322" y="-1598.3" font-family="Times,serif" font-size="14.00">01_atropos (ants)</text>
</g>
<!-- inputnode (utility)&#45;&gt;01_atropos (ants) -->
<g id="edge5" class="edge">
<title>inputnode (utility)&#45;&gt;01_atropos (ants)</title>
<path fill="none" stroke="black" d="M308.67,-1803.22C327.26,-1794.97 347.13,-1782.4 358,-1764 382.41,-1722.66 373.4,-1701.79 359,-1656 355.82,-1645.88 349.94,-1636.01 343.8,-1627.59"/>
<polygon fill="black" stroke="black" points="346.55,-1625.43 337.65,-1619.69 341.03,-1629.73 346.55,-1625.43"/>
</g>
<!-- inu_n4_final (ants) -->
<g id="node7" class="node">
<title>inu_n4_final (ants)</title>
<ellipse fill="none" stroke="black" cx="105" cy="-1386" rx="77.19" ry="18"/>
<text text-anchor="middle" x="105" y="-1382.3" font-family="Times,serif" font-size="14.00">inu_n4_final (ants)</text>
</g>
<!-- inputnode (utility)&#45;&gt;inu_n4_final (ants) -->
<g id="edge6" class="edge">
<title>inputnode (utility)&#45;&gt;inu_n4_final (ants)</title>
<path fill="none" stroke="black" d="M216.8,-1804.12C160.22,-1785.74 74,-1746.07 74,-1675 74,-1675 74,-1675 74,-1529 74,-1488.1 86.43,-1442.06 95.55,-1413.79"/>
<polygon fill="black" stroke="black" points="98.89,-1414.82 98.73,-1404.22 92.25,-1412.61 98.89,-1414.82"/>
</g>
<!-- msk_conform (utility) -->
<g id="node8" class="node">
<title>msk_conform (utility)</title>
<ellipse fill="none" stroke="black" cx="607" cy="-234" rx="89.88" ry="18"/>
<text text-anchor="middle" x="607" y="-230.3" font-family="Times,serif" font-size="14.00">msk_conform (utility)</text>
</g>
<!-- inputnode (utility)&#45;&gt;msk_conform (utility) -->
<g id="edge7" class="edge">
<title>inputnode (utility)&#45;&gt;msk_conform (utility)</title>
<path fill="none" stroke="black" d="M333.46,-1810.43C462.53,-1796.13 729,-1756.72 729,-1675 729,-1675 729,-1675 729,-377 729,-336.25 732.07,-320.12 707,-288 695.37,-273.1 678.36,-261.92 661.66,-253.76"/>
<polygon fill="black" stroke="black" points="663,-250.52 652.45,-249.53 660.08,-256.88 663,-250.52"/>
</g>
<!-- get_brainmask (ants) -->
<g id="node9" class="node">
<title>get_brainmask (ants)</title>
<ellipse fill="none" stroke="black" cx="265" cy="-1674" rx="85.29" ry="18"/>
<text text-anchor="middle" x="265" y="-1670.3" font-family="Times,serif" font-size="14.00">get_brainmask (ants)</text>
</g>
<!-- dil_brainmask (ants)&#45;&gt;get_brainmask (ants) -->
<g id="edge8" class="edge">
<title>dil_brainmask (ants)&#45;&gt;get_brainmask (ants)</title>
<path fill="none" stroke="black" d="M265,-1727.7C265,-1719.98 265,-1710.71 265,-1702.11"/>
<polygon fill="black" stroke="black" points="268.5,-1702.1 265,-1692.1 261.5,-1702.1 268.5,-1702.1"/>
</g>
<!-- apply_mask (nibabel) -->
<g id="node10" class="node">
<title>apply_mask (nibabel)</title>
<ellipse fill="none" stroke="black" cx="248" cy="-90" rx="87.99" ry="18"/>
<text text-anchor="middle" x="248" y="-86.3" font-family="Times,serif" font-size="14.00">apply_mask (nibabel)</text>
</g>
<!-- copy_xform (header)&#45;&gt;apply_mask (nibabel) -->
<g id="edge9" class="edge">
<title>copy_xform (header)&#45;&gt;apply_mask (nibabel)</title>
<path fill="none" stroke="black" d="M204.04,-144.05C211.09,-135.54 219.77,-125.07 227.55,-115.68"/>
<polygon fill="black" stroke="black" points="230.4,-117.72 234.09,-107.79 225.01,-113.26 230.4,-117.72"/>
</g>
<!-- outputnode (utility) -->
<g id="node11" class="node">
<title>outputnode (utility)</title>
<ellipse fill="none" stroke="black" cx="190" cy="-18" rx="79.09" ry="18"/>
<text text-anchor="middle" x="190" y="-14.3" font-family="Times,serif" font-size="14.00">outputnode (utility)</text>
</g>
<!-- copy_xform (header)&#45;&gt;outputnode (utility) -->
<g id="edge10" class="edge">
<title>copy_xform (header)&#45;&gt;outputnode (utility)</title>
<path fill="none" stroke="black" d="M173.11,-143.99C164.71,-134.31 155.42,-121.46 151,-108 146.01,-92.8 146.01,-87.2 151,-72 154.31,-61.91 160.37,-52.15 166.73,-43.82"/>
<polygon fill="black" stroke="black" points="169.5,-45.97 173.11,-36.01 164.08,-41.54 169.5,-45.97"/>
</g>
<!-- copy_xform_wm (header)&#45;&gt;inu_n4_final (ants) -->
<g id="edge11" class="edge">
<title>copy_xform_wm (header)&#45;&gt;inu_n4_final (ants)</title>
<path fill="none" stroke="black" d="M182.06,-1440.41C168.51,-1431.02 151.38,-1419.15 136.72,-1408.98"/>
<polygon fill="black" stroke="black" points="138.63,-1406.05 128.42,-1403.23 134.64,-1411.8 138.63,-1406.05"/>
</g>
<!-- 20_add_7_2 (ants) -->
<g id="node12" class="node">
<title>20_add_7_2 (ants)</title>
<ellipse fill="none" stroke="black" cx="607" cy="-522" rx="76.89" ry="18"/>
<text text-anchor="middle" x="607" y="-518.3" font-family="Times,serif" font-size="14.00">20_add_7_2 (ants)</text>
</g>
<!-- 03_pad_mask (ants)&#45;&gt;20_add_7_2 (ants) -->
<g id="edge12" class="edge">
<title>03_pad_mask (ants)&#45;&gt;20_add_7_2 (ants)</title>
<path fill="none" stroke="black" d="M596.22,-1657.08C632.53,-1634.25 691,-1588.57 691,-1531 691,-1531 691,-1531 691,-665 691,-623.91 687.7,-610.89 666,-576 658.89,-564.56 648.59,-554.12 638.59,-545.59"/>
<polygon fill="black" stroke="black" points="640.66,-542.77 630.69,-539.18 636.24,-548.2 640.66,-542.77"/>
</g>
<!-- 02_pad_segm (ants) -->
<g id="node13" class="node">
<title>02_pad_segm (ants)</title>
<ellipse fill="none" stroke="black" cx="416" cy="-1530" rx="82.59" ry="18"/>
<text text-anchor="middle" x="416" y="-1526.3" font-family="Times,serif" font-size="14.00">02_pad_segm (ants)</text>
</g>
<!-- 01_atropos (ants)&#45;&gt;02_pad_segm (ants) -->
<g id="edge13" class="edge">
<title>01_atropos (ants)&#45;&gt;02_pad_segm (ants)</title>
<path fill="none" stroke="black" d="M343.8,-1584.76C356.29,-1575.47 372.14,-1563.66 385.81,-1553.48"/>
<polygon fill="black" stroke="black" points="388.06,-1556.17 393.99,-1547.39 383.88,-1550.56 388.06,-1556.17"/>
</g>
<!-- sel_wm (utility) -->
<g id="node14" class="node">
<title>sel_wm (utility)</title>
<ellipse fill="none" stroke="black" cx="248" cy="-1530" rx="67.69" ry="18"/>
<text text-anchor="middle" x="248" y="-1526.3" font-family="Times,serif" font-size="14.00">sel_wm (utility)</text>
</g>
<!-- 01_atropos (ants)&#45;&gt;sel_wm (utility) -->
<g id="edge14" class="edge">
<title>01_atropos (ants)&#45;&gt;sel_wm (utility)</title>
<path fill="none" stroke="black" d="M304.46,-1584.41C294.97,-1575.43 283.09,-1564.19 272.68,-1554.34"/>
<polygon fill="black" stroke="black" points="275.08,-1551.8 265.41,-1547.47 270.27,-1556.88 275.08,-1551.8"/>
</g>
<!-- inu_n4_final (ants)&#45;&gt;copy_xform (header) -->
<g id="edge15" class="edge">
<title>inu_n4_final (ants)&#45;&gt;copy_xform (header)</title>
<path fill="none" stroke="black" d="M91.32,-1368.25C71.99,-1342.82 39,-1292.21 39,-1243 39,-1243 39,-1243 39,-305 39,-246.71 99.45,-205.33 143.86,-182.81"/>
<polygon fill="black" stroke="black" points="145.63,-185.83 153.06,-178.28 142.54,-179.55 145.63,-185.83"/>
</g>
<!-- msk_conform (utility)&#45;&gt;copy_xform (header) -->
<g id="edge16" class="edge">
<title>msk_conform (utility)&#45;&gt;copy_xform (header)</title>
<path fill="none" stroke="black" d="M540.46,-221.83C465.42,-209.23 343.66,-188.79 265.22,-175.63"/>
<polygon fill="black" stroke="black" points="265.37,-172.1 254.93,-173.9 264.21,-179.01 265.37,-172.1"/>
</g>
<!-- get_brainmask (ants)&#45;&gt;01_atropos (ants) -->
<g id="edge17" class="edge">
<title>get_brainmask (ants)&#45;&gt;01_atropos (ants)</title>
<path fill="none" stroke="black" d="M278.8,-1656.05C285.73,-1647.54 294.26,-1637.07 301.9,-1627.68"/>
<polygon fill="black" stroke="black" points="304.73,-1629.75 308.33,-1619.79 299.3,-1625.33 304.73,-1629.75"/>
</g>
<!-- apply_mask (nibabel)&#45;&gt;outputnode (utility) -->
<g id="edge18" class="edge">
<title>apply_mask (nibabel)&#45;&gt;outputnode (utility)</title>
<path fill="none" stroke="black" d="M233.96,-72.05C226.91,-63.54 218.23,-53.07 210.45,-43.68"/>
<polygon fill="black" stroke="black" points="212.99,-41.26 203.91,-35.79 207.6,-45.72 212.99,-41.26"/>
</g>
<!-- 21_md_7_2 (ants) -->
<g id="node35" class="node">
<title>21_md_7_2 (ants)</title>
<ellipse fill="none" stroke="black" cx="607" cy="-450" rx="75.29" ry="18"/>
<text text-anchor="middle" x="607" y="-446.3" font-family="Times,serif" font-size="14.00">21_md_7_2 (ants)</text>
</g>
<!-- 20_add_7_2 (ants)&#45;&gt;21_md_7_2 (ants) -->
<g id="edge19" class="edge">
<title>20_add_7_2 (ants)&#45;&gt;21_md_7_2 (ants)</title>
<path fill="none" stroke="black" d="M607,-503.7C607,-495.98 607,-486.71 607,-478.11"/>
<polygon fill="black" stroke="black" points="610.5,-478.1 607,-468.1 603.5,-478.1 610.5,-478.1"/>
</g>
<!-- 04_sel_labels (utility) -->
<g id="node15" class="node">
<title>04_sel_labels (utility)</title>
<ellipse fill="none" stroke="black" cx="416" cy="-1458" rx="87.99" ry="18"/>
<text text-anchor="middle" x="416" y="-1454.3" font-family="Times,serif" font-size="14.00">04_sel_labels (utility)</text>
</g>
<!-- 02_pad_segm (ants)&#45;&gt;04_sel_labels (utility) -->
<g id="edge20" class="edge">
<title>02_pad_segm (ants)&#45;&gt;04_sel_labels (utility)</title>
<path fill="none" stroke="black" d="M416,-1511.7C416,-1503.98 416,-1494.71 416,-1486.11"/>
<polygon fill="black" stroke="black" points="419.5,-1486.1 416,-1476.1 412.5,-1486.1 419.5,-1486.1"/>
</g>
<!-- sel_wm (utility)&#45;&gt;copy_xform_wm (header) -->
<g id="edge21" class="edge">
<title>sel_wm (utility)&#45;&gt;copy_xform_wm (header)</title>
<path fill="none" stroke="black" d="M237.83,-1512.05C232.95,-1503.92 227,-1494 221.57,-1484.94"/>
<polygon fill="black" stroke="black" points="224.51,-1483.05 216.37,-1476.28 218.51,-1486.65 224.51,-1483.05"/>
</g>
<!-- 05_get_wm (ants) -->
<g id="node16" class="node">
<title>05_get_wm (ants)</title>
<ellipse fill="none" stroke="black" cx="313" cy="-1386" rx="75.29" ry="18"/>
<text text-anchor="middle" x="313" y="-1382.3" font-family="Times,serif" font-size="14.00">05_get_wm (ants)</text>
</g>
<!-- 04_sel_labels (utility)&#45;&gt;05_get_wm (ants) -->
<g id="edge22" class="edge">
<title>04_sel_labels (utility)&#45;&gt;05_get_wm (ants)</title>
<path fill="none" stroke="black" d="M391.85,-1440.59C378.03,-1431.2 360.51,-1419.29 345.5,-1409.09"/>
<polygon fill="black" stroke="black" points="347.24,-1406.04 337,-1403.31 343.3,-1411.82 347.24,-1406.04"/>
</g>
<!-- 06_get_gm (ants) -->
<g id="node17" class="node">
<title>06_get_gm (ants)</title>
<ellipse fill="none" stroke="black" cx="517" cy="-1386" rx="73.39" ry="18"/>
<text text-anchor="middle" x="517" y="-1382.3" font-family="Times,serif" font-size="14.00">06_get_gm (ants)</text>
</g>
<!-- 04_sel_labels (utility)&#45;&gt;06_get_gm (ants) -->
<g id="edge23" class="edge">
<title>04_sel_labels (utility)&#45;&gt;06_get_gm (ants)</title>
<path fill="none" stroke="black" d="M439.68,-1440.59C453.23,-1431.2 470.41,-1419.29 485.13,-1409.09"/>
<polygon fill="black" stroke="black" points="487.24,-1411.88 493.47,-1403.31 483.26,-1406.13 487.24,-1411.88"/>
</g>
<!-- 10_me_csf (ants) -->
<g id="node18" class="node">
<title>10_me_csf (ants)</title>
<ellipse fill="none" stroke="black" cx="415" cy="-1242" rx="72.29" ry="18"/>
<text text-anchor="middle" x="415" y="-1238.3" font-family="Times,serif" font-size="14.00">10_me_csf (ants)</text>
</g>
<!-- 04_sel_labels (utility)&#45;&gt;10_me_csf (ants) -->
<g id="edge24" class="edge">
<title>04_sel_labels (utility)&#45;&gt;10_me_csf (ants)</title>
<path fill="none" stroke="black" d="M415.92,-1439.85C415.75,-1402.83 415.34,-1315.18 415.13,-1270.39"/>
<polygon fill="black" stroke="black" points="418.63,-1270.22 415.08,-1260.23 411.63,-1270.25 418.63,-1270.22"/>
</g>
<!-- 27_depad_csf (ants) -->
<g id="node19" class="node">
<title>27_depad_csf (ants)</title>
<ellipse fill="none" stroke="black" cx="176" cy="-1314" rx="81.79" ry="18"/>
<text text-anchor="middle" x="176" y="-1310.3" font-family="Times,serif" font-size="14.00">27_depad_csf (ants)</text>
</g>
<!-- 04_sel_labels (utility)&#45;&gt;27_depad_csf (ants) -->
<g id="edge25" class="edge">
<title>04_sel_labels (utility)&#45;&gt;27_depad_csf (ants)</title>
<path fill="none" stroke="black" d="M355.28,-1444.88C308.61,-1434.65 248.87,-1419.26 229,-1404 208.26,-1388.07 193.98,-1361.52 185.51,-1341.55"/>
<polygon fill="black" stroke="black" points="188.69,-1340.06 181.72,-1332.08 182.19,-1342.66 188.69,-1340.06"/>
</g>
<!-- 09_relabel_wm (ants) -->
<g id="node20" class="node">
<title>09_relabel_wm (ants)</title>
<ellipse fill="none" stroke="black" cx="313" cy="-1098" rx="88.28" ry="18"/>
<text text-anchor="middle" x="313" y="-1094.3" font-family="Times,serif" font-size="14.00">09_relabel_wm (ants)</text>
</g>
<!-- 05_get_wm (ants)&#45;&gt;09_relabel_wm (ants) -->
<g id="edge26" class="edge">
<title>05_get_wm (ants)&#45;&gt;09_relabel_wm (ants)</title>
<path fill="none" stroke="black" d="M313,-1367.97C313,-1320.29 313,-1185.18 313,-1126.63"/>
<polygon fill="black" stroke="black" points="316.5,-1126.31 313,-1116.31 309.5,-1126.31 316.5,-1126.31"/>
</g>
<!-- 07_fill_gm (ants) -->
<g id="node21" class="node">
<title>07_fill_gm (ants)</title>
<ellipse fill="none" stroke="black" cx="516" cy="-1314" rx="72.29" ry="18"/>
<text text-anchor="middle" x="516" y="-1310.3" font-family="Times,serif" font-size="14.00">07_fill_gm (ants)</text>
</g>
<!-- 06_get_gm (ants)&#45;&gt;07_fill_gm (ants) -->
<g id="edge27" class="edge">
<title>06_get_gm (ants)&#45;&gt;07_fill_gm (ants)</title>
<path fill="none" stroke="black" d="M516.75,-1367.7C516.64,-1359.98 516.51,-1350.71 516.39,-1342.11"/>
<polygon fill="black" stroke="black" points="519.89,-1342.05 516.24,-1332.1 512.89,-1342.15 519.89,-1342.05"/>
</g>
<!-- 08_mult_gm (ants) -->
<g id="node22" class="node">
<title>08_mult_gm (ants)</title>
<ellipse fill="none" stroke="black" cx="584" cy="-1242" rx="79.09" ry="18"/>
<text text-anchor="middle" x="584" y="-1238.3" font-family="Times,serif" font-size="14.00">08_mult_gm (ants)</text>
</g>
<!-- 06_get_gm (ants)&#45;&gt;08_mult_gm (ants) -->
<g id="edge28" class="edge">
<title>06_get_gm (ants)&#45;&gt;08_mult_gm (ants)</title>
<path fill="none" stroke="black" d="M553.99,-1370.28C570.27,-1361.72 587.78,-1349.17 597,-1332 607.29,-1312.85 602.54,-1288.21 596.07,-1269.71"/>
<polygon fill="black" stroke="black" points="599.24,-1268.21 592.38,-1260.14 592.71,-1270.73 599.24,-1268.21"/>
</g>
<!-- 11_add_gm (ants) -->
<g id="node23" class="node">
<title>11_add_gm (ants)</title>
<ellipse fill="none" stroke="black" cx="538" cy="-1170" rx="75.29" ry="18"/>
<text text-anchor="middle" x="538" y="-1166.3" font-family="Times,serif" font-size="14.00">11_add_gm (ants)</text>
</g>
<!-- 10_me_csf (ants)&#45;&gt;11_add_gm (ants) -->
<g id="edge29" class="edge">
<title>10_me_csf (ants)&#45;&gt;11_add_gm (ants)</title>
<path fill="none" stroke="black" d="M442.6,-1225.29C459.89,-1215.45 482.37,-1202.66 501.17,-1191.96"/>
<polygon fill="black" stroke="black" points="503.1,-1194.89 510.06,-1186.9 499.64,-1188.8 503.1,-1194.89"/>
</g>
<!-- merge_tpms (utility) -->
<g id="node38" class="node">
<title>merge_tpms (utility)</title>
<ellipse fill="none" stroke="black" cx="190" cy="-954" rx="84.49" ry="18"/>
<text text-anchor="middle" x="190" y="-950.3" font-family="Times,serif" font-size="14.00">merge_tpms (utility)</text>
</g>
<!-- 27_depad_csf (ants)&#45;&gt;merge_tpms (utility) -->
<g id="edge30" class="edge">
<title>27_depad_csf (ants)&#45;&gt;merge_tpms (utility)</title>
<path fill="none" stroke="black" d="M154.03,-1296.38C124.86,-1272.25 77,-1224.49 77,-1171 77,-1171 77,-1171 77,-1097 77,-1056.55 72.04,-1040.59 96,-1008 106.67,-993.49 122.58,-982.4 138.29,-974.21"/>
<polygon fill="black" stroke="black" points="140.03,-977.26 147.48,-969.72 136.96,-970.97 140.03,-977.26"/>
</g>
<!-- 13_add_gm_wm (ants) -->
<g id="node24" class="node">
<title>13_add_gm_wm (ants)</title>
<ellipse fill="none" stroke="black" cx="570" cy="-1026" rx="92.88" ry="18"/>
<text text-anchor="middle" x="570" y="-1022.3" font-family="Times,serif" font-size="14.00">13_add_gm_wm (ants)</text>
</g>
<!-- 09_relabel_wm (ants)&#45;&gt;13_add_gm_wm (ants) -->
<g id="edge31" class="edge">
<title>09_relabel_wm (ants)&#45;&gt;13_add_gm_wm (ants)</title>
<path fill="none" stroke="black" d="M363.77,-1083.17C405.39,-1071.84 464.43,-1055.76 508.68,-1043.7"/>
<polygon fill="black" stroke="black" points="509.72,-1047.05 518.45,-1041.04 507.88,-1040.29 509.72,-1047.05"/>
</g>
<!-- 26_depad_wm (ants) -->
<g id="node25" class="node">
<title>26_depad_wm (ants)</title>
<ellipse fill="none" stroke="black" cx="190" cy="-1026" rx="85.29" ry="18"/>
<text text-anchor="middle" x="190" y="-1022.3" font-family="Times,serif" font-size="14.00">26_depad_wm (ants)</text>
</g>
<!-- 09_relabel_wm (ants)&#45;&gt;26_depad_wm (ants) -->
<g id="edge32" class="edge">
<title>09_relabel_wm (ants)&#45;&gt;26_depad_wm (ants)</title>
<path fill="none" stroke="black" d="M284.78,-1080.94C267.71,-1071.23 245.76,-1058.73 227.27,-1048.21"/>
<polygon fill="black" stroke="black" points="228.94,-1045.13 218.51,-1043.23 225.47,-1051.22 228.94,-1045.13"/>
</g>
<!-- 07_fill_gm (ants)&#45;&gt;08_mult_gm (ants) -->
<g id="edge33" class="edge">
<title>07_fill_gm (ants)&#45;&gt;08_mult_gm (ants)</title>
<path fill="none" stroke="black" d="M532.12,-1296.41C540.54,-1287.73 551.02,-1276.95 560.35,-1267.34"/>
<polygon fill="black" stroke="black" points="563.07,-1269.57 567.53,-1259.96 558.05,-1264.69 563.07,-1269.57"/>
</g>
<!-- 08_mult_gm (ants)&#45;&gt;11_add_gm (ants) -->
<g id="edge34" class="edge">
<title>08_mult_gm (ants)&#45;&gt;11_add_gm (ants)</title>
<path fill="none" stroke="black" d="M572.86,-1224.05C567.46,-1215.84 560.86,-1205.79 554.86,-1196.66"/>
<polygon fill="black" stroke="black" points="557.77,-1194.71 549.35,-1188.28 551.92,-1198.55 557.77,-1194.71"/>
</g>
<!-- 12_relabel_gm (ants) -->
<g id="node26" class="node">
<title>12_relabel_gm (ants)</title>
<ellipse fill="none" stroke="black" cx="538" cy="-1098" rx="86.38" ry="18"/>
<text text-anchor="middle" x="538" y="-1094.3" font-family="Times,serif" font-size="14.00">12_relabel_gm (ants)</text>
</g>
<!-- 11_add_gm (ants)&#45;&gt;12_relabel_gm (ants) -->
<g id="edge35" class="edge">
<title>11_add_gm (ants)&#45;&gt;12_relabel_gm (ants)</title>
<path fill="none" stroke="black" d="M538,-1151.7C538,-1143.98 538,-1134.71 538,-1126.11"/>
<polygon fill="black" stroke="black" points="541.5,-1126.1 538,-1116.1 534.5,-1126.1 541.5,-1126.1"/>
</g>
<!-- 14_sel_labels2 (utility) -->
<g id="node28" class="node">
<title>14_sel_labels2 (utility)</title>
<ellipse fill="none" stroke="black" cx="571" cy="-954" rx="92.08" ry="18"/>
<text text-anchor="middle" x="571" y="-950.3" font-family="Times,serif" font-size="14.00">14_sel_labels2 (utility)</text>
</g>
<!-- 13_add_gm_wm (ants)&#45;&gt;14_sel_labels2 (utility) -->
<g id="edge36" class="edge">
<title>13_add_gm_wm (ants)&#45;&gt;14_sel_labels2 (utility)</title>
<path fill="none" stroke="black" d="M570.25,-1007.7C570.36,-999.98 570.49,-990.71 570.61,-982.11"/>
<polygon fill="black" stroke="black" points="574.11,-982.15 570.76,-972.1 567.11,-982.05 574.11,-982.15"/>
</g>
<!-- 24_depad_segm (ants) -->
<g id="node29" class="node">
<title>24_depad_segm (ants)</title>
<ellipse fill="none" stroke="black" cx="356" cy="-882" rx="90.98" ry="18"/>
<text text-anchor="middle" x="356" y="-878.3" font-family="Times,serif" font-size="14.00">24_depad_segm (ants)</text>
</g>
<!-- 13_add_gm_wm (ants)&#45;&gt;24_depad_segm (ants) -->
<g id="edge37" class="edge">
<title>13_add_gm_wm (ants)&#45;&gt;24_depad_segm (ants)</title>
<path fill="none" stroke="black" d="M536.29,-1008.99C516.5,-999.14 491.27,-985.79 470,-972 438.85,-951.81 405.66,-925.26 383.17,-906.42"/>
<polygon fill="black" stroke="black" points="385.29,-903.63 375.39,-899.86 380.78,-908.98 385.29,-903.63"/>
</g>
<!-- 26_depad_wm (ants)&#45;&gt;merge_tpms (utility) -->
<g id="edge38" class="edge">
<title>26_depad_wm (ants)&#45;&gt;merge_tpms (utility)</title>
<path fill="none" stroke="black" d="M190,-1007.7C190,-999.98 190,-990.71 190,-982.11"/>
<polygon fill="black" stroke="black" points="193.5,-982.1 190,-972.1 186.5,-982.1 193.5,-982.1"/>
</g>
<!-- 12_relabel_gm (ants)&#45;&gt;13_add_gm_wm (ants) -->
<g id="edge39" class="edge">
<title>12_relabel_gm (ants)&#45;&gt;13_add_gm_wm (ants)</title>
<path fill="none" stroke="black" d="M545.75,-1080.05C549.39,-1072.09 553.81,-1062.41 557.88,-1053.51"/>
<polygon fill="black" stroke="black" points="561.13,-1054.83 562.1,-1044.28 554.76,-1051.91 561.13,-1054.83"/>
</g>
<!-- 25_depad_gm (ants) -->
<g id="node27" class="node">
<title>25_depad_gm (ants)</title>
<ellipse fill="none" stroke="black" cx="376" cy="-1026" rx="83.39" ry="18"/>
<text text-anchor="middle" x="376" y="-1022.3" font-family="Times,serif" font-size="14.00">25_depad_gm (ants)</text>
</g>
<!-- 12_relabel_gm (ants)&#45;&gt;25_depad_gm (ants) -->
<g id="edge40" class="edge">
<title>12_relabel_gm (ants)&#45;&gt;25_depad_gm (ants)</title>
<path fill="none" stroke="black" d="M502.05,-1081.46C478.16,-1071.14 446.61,-1057.51 421.05,-1046.47"/>
<polygon fill="black" stroke="black" points="422.14,-1043.12 411.57,-1042.37 419.36,-1049.55 422.14,-1043.12"/>
</g>
<!-- 25_depad_gm (ants)&#45;&gt;merge_tpms (utility) -->
<g id="edge41" class="edge">
<title>25_depad_gm (ants)&#45;&gt;merge_tpms (utility)</title>
<path fill="none" stroke="black" d="M336.1,-1009.98C307.78,-999.33 269.58,-984.95 239.35,-973.57"/>
<polygon fill="black" stroke="black" points="240.43,-970.24 229.84,-969.99 237.96,-976.79 240.43,-970.24"/>
</g>
<!-- 15_add_7 (ants) -->
<g id="node30" class="node">
<title>15_add_7 (ants)</title>
<ellipse fill="none" stroke="black" cx="575" cy="-882" rx="67.69" ry="18"/>
<text text-anchor="middle" x="575" y="-878.3" font-family="Times,serif" font-size="14.00">15_add_7 (ants)</text>
</g>
<!-- 14_sel_labels2 (utility)&#45;&gt;15_add_7 (ants) -->
<g id="edge42" class="edge">
<title>14_sel_labels2 (utility)&#45;&gt;15_add_7 (ants)</title>
<path fill="none" stroke="black" d="M571.99,-935.7C572.43,-927.98 572.96,-918.71 573.45,-910.11"/>
<polygon fill="black" stroke="black" points="576.95,-910.29 574.02,-900.1 569.96,-909.89 576.95,-910.29"/>
</g>
<!-- 24_depad_segm (ants)&#45;&gt;copy_xform (header) -->
<g id="edge43" class="edge">
<title>24_depad_segm (ants)&#45;&gt;copy_xform (header)</title>
<path fill="none" stroke="black" d="M343.15,-864.11C324.99,-838.51 294,-787.69 294,-739 294,-739 294,-739 294,-305 294,-255.07 251.63,-211.03 220.98,-185.7"/>
<polygon fill="black" stroke="black" points="223.07,-182.89 213.08,-179.37 218.69,-188.35 223.07,-182.89"/>
</g>
<!-- 16_me_7 (ants) -->
<g id="node31" class="node">
<title>16_me_7 (ants)</title>
<ellipse fill="none" stroke="black" cx="577" cy="-810" rx="66.09" ry="18"/>
<text text-anchor="middle" x="577" y="-806.3" font-family="Times,serif" font-size="14.00">16_me_7 (ants)</text>
</g>
<!-- 15_add_7 (ants)&#45;&gt;16_me_7 (ants) -->
<g id="edge44" class="edge">
<title>15_add_7 (ants)&#45;&gt;16_me_7 (ants)</title>
<path fill="none" stroke="black" d="M575.49,-863.7C575.71,-855.98 575.98,-846.71 576.23,-838.11"/>
<polygon fill="black" stroke="black" points="579.72,-838.2 576.51,-828.1 572.73,-838 579.72,-838.2"/>
</g>
<!-- 17_comp_7 (ants) -->
<g id="node32" class="node">
<title>17_comp_7 (ants)</title>
<ellipse fill="none" stroke="black" cx="585" cy="-738" rx="75.29" ry="18"/>
<text text-anchor="middle" x="585" y="-734.3" font-family="Times,serif" font-size="14.00">17_comp_7 (ants)</text>
</g>
<!-- 16_me_7 (ants)&#45;&gt;17_comp_7 (ants) -->
<g id="edge45" class="edge">
<title>16_me_7 (ants)&#45;&gt;17_comp_7 (ants)</title>
<path fill="none" stroke="black" d="M578.98,-791.7C579.86,-783.98 580.92,-774.71 581.9,-766.11"/>
<polygon fill="black" stroke="black" points="585.39,-766.44 583.05,-756.1 578.43,-765.64 585.39,-766.44"/>
</g>
<!-- 18_md_7 (ants) -->
<g id="node33" class="node">
<title>18_md_7 (ants)</title>
<ellipse fill="none" stroke="black" cx="590" cy="-666" rx="66.89" ry="18"/>
<text text-anchor="middle" x="590" y="-662.3" font-family="Times,serif" font-size="14.00">18_md_7 (ants)</text>
</g>
<!-- 17_comp_7 (ants)&#45;&gt;18_md_7 (ants) -->
<g id="edge46" class="edge">
<title>17_comp_7 (ants)&#45;&gt;18_md_7 (ants)</title>
<path fill="none" stroke="black" d="M586.24,-719.7C586.79,-711.98 587.45,-702.71 588.06,-694.11"/>
<polygon fill="black" stroke="black" points="591.56,-694.33 588.78,-684.1 584.57,-693.83 591.56,-694.33"/>
</g>
<!-- 19_fill_7 (ants) -->
<g id="node34" class="node">
<title>19_fill_7 (ants)</title>
<ellipse fill="none" stroke="black" cx="592" cy="-594" rx="64.99" ry="18"/>
<text text-anchor="middle" x="592" y="-590.3" font-family="Times,serif" font-size="14.00">19_fill_7 (ants)</text>
</g>
<!-- 18_md_7 (ants)&#45;&gt;19_fill_7 (ants) -->
<g id="edge47" class="edge">
<title>18_md_7 (ants)&#45;&gt;19_fill_7 (ants)</title>
<path fill="none" stroke="black" d="M590.49,-647.7C590.71,-639.98 590.98,-630.71 591.23,-622.11"/>
<polygon fill="black" stroke="black" points="594.72,-622.2 591.51,-612.1 587.73,-622 594.72,-622.2"/>
</g>
<!-- 19_fill_7 (ants)&#45;&gt;20_add_7_2 (ants) -->
<g id="edge48" class="edge">
<title>19_fill_7 (ants)&#45;&gt;20_add_7_2 (ants)</title>
<path fill="none" stroke="black" d="M595.71,-575.7C597.36,-567.98 599.35,-558.71 601.19,-550.11"/>
<polygon fill="black" stroke="black" points="604.66,-550.62 603.33,-540.1 597.82,-549.15 604.66,-550.62"/>
</g>
<!-- 22_me_7_2 (ants) -->
<g id="node36" class="node">
<title>22_me_7_2 (ants)</title>
<ellipse fill="none" stroke="black" cx="607" cy="-378" rx="75.29" ry="18"/>
<text text-anchor="middle" x="607" y="-374.3" font-family="Times,serif" font-size="14.00">22_me_7_2 (ants)</text>
</g>
<!-- 21_md_7_2 (ants)&#45;&gt;22_me_7_2 (ants) -->
<g id="edge49" class="edge">
<title>21_md_7_2 (ants)&#45;&gt;22_me_7_2 (ants)</title>
<path fill="none" stroke="black" d="M607,-431.7C607,-423.98 607,-414.71 607,-406.11"/>
<polygon fill="black" stroke="black" points="610.5,-406.1 607,-396.1 603.5,-406.1 610.5,-406.1"/>
</g>
<!-- 23_depad_mask (ants) -->
<g id="node37" class="node">
<title>23_depad_mask (ants)</title>
<ellipse fill="none" stroke="black" cx="607" cy="-306" rx="90.98" ry="18"/>
<text text-anchor="middle" x="607" y="-302.3" font-family="Times,serif" font-size="14.00">23_depad_mask (ants)</text>
</g>
<!-- 22_me_7_2 (ants)&#45;&gt;23_depad_mask (ants) -->
<g id="edge50" class="edge">
<title>22_me_7_2 (ants)&#45;&gt;23_depad_mask (ants)</title>
<path fill="none" stroke="black" d="M607,-359.7C607,-351.98 607,-342.71 607,-334.11"/>
<polygon fill="black" stroke="black" points="610.5,-334.1 607,-324.1 603.5,-334.1 610.5,-334.1"/>
</g>
<!-- 23_depad_mask (ants)&#45;&gt;msk_conform (utility) -->
<g id="edge51" class="edge">
<title>23_depad_mask (ants)&#45;&gt;msk_conform (utility)</title>
<path fill="none" stroke="black" d="M607,-287.7C607,-279.98 607,-270.71 607,-262.11"/>
<polygon fill="black" stroke="black" points="610.5,-262.1 607,-252.1 603.5,-262.1 610.5,-262.1"/>
</g>
<!-- merge_tpms (utility)&#45;&gt;copy_xform (header) -->
<g id="edge52" class="edge">
<title>merge_tpms (utility)&#45;&gt;copy_xform (header)</title>
<path fill="none" stroke="black" d="M190,-935.95C190,-909.29 190,-856.11 190,-811 190,-811 190,-811 190,-305 190,-265 190,-218.65 190,-190.08"/>
<polygon fill="black" stroke="black" points="193.5,-190.05 190,-180.05 186.5,-190.05 193.5,-190.05"/>
</g>
</g>
</svg>
